<?xml version="1.0" encoding="UTF-8"?>
<!DOCTYPE svg PUBLIC "-//W3C//DTD SVG 1.1//EN" "http://www.w3.org/Graphics/SVG/1.1/DTD/svg11.dtd">
<svg xmlns="http://www.w3.org/2000/svg" version="1.1" width="2560px" height="1187px" style="shape-rendering:geometricPrecision; text-rendering:geometricPrecision; image-rendering:optimizeQuality; fill-rule:evenodd; clip-rule:evenodd" xmlns:xlink="http://www.w3.org/1999/xlink">
<g><path style="opacity:0.995" fill="#263576" d="M 2294.5,-0.5 C 2296.17,-0.5 2297.83,-0.5 2299.5,-0.5C 2362.41,18.58 2425.08,38.9134 2487.5,60.5C 2498.57,88.1957 2507.73,116.529 2515,145.5C 2541.2,249.045 2556.03,354.045 2559.5,460.5C 2559.5,483.5 2559.5,506.5 2559.5,529.5C 2557.22,604.136 2548.39,678.136 2533,751.5C 2517.17,825.045 2488.17,892.712 2446,954.5C 2386.65,1033.97 2308.82,1086.81 2212.5,1113C 2161.48,1127.28 2109.48,1135.28 2056.5,1137C 1954.41,1141.13 1852.41,1139.46 1750.5,1132C 1711.48,1129.31 1672.48,1126.31 1633.5,1123C 1485.82,1108.15 1338.15,1093.15 1190.5,1078C 1046.88,1062.97 902.878,1054.47 758.5,1052.5C 663.073,1051.39 568.406,1059.22 474.5,1076C 413.933,1087.3 356.266,1106.97 301.5,1135C 275.369,1149.31 251.369,1166.48 229.5,1186.5C 225.833,1186.5 222.167,1186.5 218.5,1186.5C 170.343,1176.8 122.01,1167.3 73.5,1158C 71.0607,1157.23 69.2273,1155.73 68,1153.5C 57.6525,1125.78 49.3192,1097.45 43,1068.5C 19.5625,966.273 5.06245,862.94 -0.5,758.5C -0.5,713.5 -0.5,668.5 -0.5,623.5C 2.43463,549.797 13.268,477.13 32,405.5C 97.1816,163.265 255.348,36.7651 506.5,26C 564.21,25.316 621.877,26.6493 679.5,30C 845.213,41.0043 1010.55,56.3376 1175.5,76C 1322.03,96.0866 1469.03,111.753 1616.5,123C 1720.47,130.679 1824.47,131.346 1928.5,125C 1994.7,120.466 2059.7,109.133 2123.5,91C 2172.46,76.3648 2218.13,55.0314 2260.5,27C 2272.31,18.3484 2283.64,9.18168 2294.5,-0.5 Z M 74.5,367.5 C 49.7963,446.585 36.2963,527.585 34,610.5C 31.1536,710.137 37.8203,809.137 54,907.5C 65.0116,975.54 79.1783,1042.87 96.5,1109.5C 94.4449,1110.95 92.2782,1112.28 90,1113.5C 60.8311,998.82 41.4977,882.486 32,764.5C 24.1161,667.263 28.4494,570.596 45,474.5C 51.8991,437.891 61.7324,402.224 74.5,367.5 Z"/></g>
<g><path style="opacity:1" fill="#fefefe" d="M 96.5,1109.5 C 79.1783,1042.87 65.0116,975.54 54,907.5C 37.8203,809.137 31.1536,710.137 34,610.5C 36.2963,527.585 49.7963,446.585 74.5,367.5C 75.404,366.791 75.7373,365.791 75.5,364.5C 76.404,363.791 76.7373,362.791 76.5,361.5C 77.404,360.791 77.7373,359.791 77.5,358.5C 78.404,357.791 78.7373,356.791 78.5,355.5C 79.3382,355.158 79.6716,354.492 79.5,353.5C 80.404,352.791 80.7373,351.791 80.5,350.5C 81.404,349.791 81.7373,348.791 81.5,347.5C 82.3382,347.158 82.6716,346.492 82.5,345.5C 83.404,344.791 83.7373,343.791 83.5,342.5C 84.404,341.791 84.7373,340.791 84.5,339.5C 85.3382,339.158 85.6716,338.492 85.5,337.5C 86.5375,336.07 87.2041,334.403 87.5,332.5C 88.7362,330.351 89.7362,328.018 90.5,325.5C 133.357,226.142 202.691,151.309 298.5,101C 354.905,76.1488 413.905,61.4821 475.5,57C 535.446,51.8317 595.446,51.1651 655.5,55C 746.877,60.8939 837.877,70.2273 928.5,83C 1073.22,105.121 1217.89,127.454 1362.5,150C 1421.14,158.396 1479.81,166.396 1538.5,174C 1628.22,185.039 1718.22,193.039 1808.5,198C 1915.74,203.437 2022.74,200.437 2129.5,189C 2225.92,178.311 2318.92,154.644 2408.5,118C 2423.39,111.304 2438.23,104.47 2453,97.5C 2453.95,97.9054 2454.61,98.572 2455,99.5C 2501.33,256.502 2521.67,416.836 2516,580.5C 2511.66,654.225 2497.32,725.892 2473,795.5C 2417.65,942.848 2313.49,1035.01 2160.5,1072C 2113.72,1082.26 2066.38,1088.6 2018.5,1091C 1921.37,1095.52 1824.37,1093.52 1727.5,1085C 1683.78,1081.54 1640.11,1077.54 1596.5,1073C 1445.13,1055.66 1293.8,1038 1142.5,1020C 1027.79,1006.97 912.793,997.305 797.5,991C 672.489,983.668 547.823,987.334 423.5,1002C 343.657,1011.96 266.323,1031.63 191.5,1061C 158.655,1075.09 126.989,1091.25 96.5,1109.5 Z"/></g>
<g><path style="opacity:1" fill="#273576" d="M 405.5,261.5 C 395.681,260.506 385.681,260.173 375.5,260.5C 375.5,250.167 375.5,239.833 375.5,229.5C 396.833,229.5 418.167,229.5 439.5,229.5C 439.833,257.175 439.5,284.841 438.5,312.5C 421.875,320.943 404.209,325.776 385.5,327C 350.484,332.3 320.651,322.467 296,297.5C 284.583,281.745 279.083,264.078 279.5,244.5C 279.603,207.086 296.937,181.586 331.5,168C 356.591,160.019 381.924,159.352 407.5,166C 418.072,169.283 427.406,174.616 435.5,182C 427.63,190.869 419.463,199.369 411,207.5C 392.563,193.963 372.396,190.796 350.5,198C 334.677,204.791 324.843,216.625 321,233.5C 318.318,277.817 339.151,298.317 383.5,295C 390.898,293.867 397.898,291.534 404.5,288C 405.484,279.251 405.817,270.418 405.5,261.5 Z"/></g>
<g><path style="opacity:1" fill="#273676" d="M 982.5,161.5 C 1011.38,159.359 1037.38,166.859 1060.5,184C 1081.57,206.075 1089.07,232.241 1083,262.5C 1077.75,291.083 1061.58,310.583 1034.5,321C 995.046,334.772 959.213,328.605 927,302.5C 915.723,290.034 909.057,275.368 907,258.5C 902.857,203.161 928.024,170.828 982.5,161.5 Z"/></g>
<g><path style="opacity:1" fill="#8e96b8" d="M 539.5,166.5 C 514.5,166.5 489.5,166.5 464.5,166.5C 464.5,218.167 464.5,269.833 464.5,321.5C 476.5,321.5 488.5,321.5 500.5,321.5C 488.345,322.495 476.011,322.829 463.5,322.5C 463.5,270.167 463.5,217.833 463.5,165.5C 489.005,165.169 514.339,165.502 539.5,166.5 Z"/></g>
<g><path style="opacity:1" fill="#273576" d="M 539.5,166.5 C 561.134,166.723 577.3,176.056 588,194.5C 590.91,209.253 589.577,223.586 584,237.5C 577.236,247.751 567.736,253.751 555.5,255.5C 569.427,277.026 583.094,298.693 596.5,320.5C 582.343,321.496 568.01,321.829 553.5,321.5C 541.941,301.39 530.608,281.057 519.5,260.5C 513.202,259.504 506.868,259.17 500.5,259.5C 500.5,280.167 500.5,300.833 500.5,321.5C 488.5,321.5 476.5,321.5 464.5,321.5C 464.5,269.833 464.5,218.167 464.5,166.5C 489.5,166.5 514.5,166.5 539.5,166.5 Z"/></g>
<g><path style="opacity:1" fill="#9098b9" d="M 642.5,166.5 C 630.5,166.5 618.5,166.5 606.5,166.5C 606.5,200.167 606.5,233.833 606.5,267.5C 605.502,233.671 605.168,199.671 605.5,165.5C 618.011,165.171 630.345,165.505 642.5,166.5 Z"/></g>
<g><path style="opacity:1" fill="#263576" d="M 642.5,166.5 C 642.033,202.207 642.533,237.874 644,273.5C 648.677,288.181 658.677,294.847 674,293.5C 691.911,294.733 702.911,286.733 707,269.5C 707.5,235.168 707.667,200.835 707.5,166.5C 719.5,166.5 731.5,166.5 743.5,166.5C 743.5,200.167 743.5,233.833 743.5,267.5C 739.6,309.825 716.266,329.825 673.5,327.5C 651.364,329.177 632.864,321.844 618,305.5C 610.659,293.972 606.826,281.306 606.5,267.5C 606.5,233.833 606.5,200.167 606.5,166.5C 618.5,166.5 630.5,166.5 642.5,166.5 Z"/></g>
<g><path style="opacity:1" fill="#9098b9" d="M 707.5,166.5 C 719.655,165.505 731.989,165.171 744.5,165.5C 744.832,199.671 744.498,233.671 743.5,267.5C 743.5,233.833 743.5,200.167 743.5,166.5C 731.5,166.5 719.5,166.5 707.5,166.5 Z"/></g>
<g><path style="opacity:1" fill="#273576" d="M 844.5,258.5 C 831.167,258.5 817.833,258.5 804.5,258.5C 804.5,278.833 804.5,299.167 804.5,319.5C 792.5,319.5 780.5,319.5 768.5,319.5C 768.5,268.167 768.5,216.833 768.5,165.5C 793.169,165.333 817.836,165.5 842.5,166C 886.03,171.511 900.863,195.011 887,236.5C 880.031,247.914 869.864,254.747 856.5,257C 852.534,257.828 848.534,258.328 844.5,258.5 Z"/></g>
<g><path style="opacity:1" fill="#fdfdfe" d="M 500.5,194.5 C 513.837,194.333 527.171,194.5 540.5,195C 551.851,201.851 554.684,211.351 549,223.5C 546.252,225.458 543.418,227.291 540.5,229C 527.24,230.444 513.907,230.944 500.5,230.5C 500.5,218.5 500.5,206.5 500.5,194.5 Z"/></g>
<g><path style="opacity:1" fill="#fdfdfe" d="M 985.5,194.5 C 1025.68,192.519 1045.85,211.519 1046,251.5C 1041.09,280.071 1024.09,294.738 995,295.5C 969.061,294.385 952.728,281.385 946,256.5C 941.277,224.253 954.444,203.587 985.5,194.5 Z"/></g>
<g><path style="opacity:1" fill="#fdfdfd" d="M 840.5,232.5 C 828.833,232.5 817.167,232.5 805.5,232.5C 805.5,230.167 805.5,227.833 805.5,225.5C 805.575,215.822 805.908,206.156 806.5,196.5C 818.171,196.333 829.838,196.5 841.5,197C 855.456,201.415 859.623,210.582 854,224.5C 850.754,229.302 846.254,231.969 840.5,232.5 Z"/></g>
<g><path style="opacity:1" fill="#646f9d" d="M 805.5,225.5 C 805.5,227.833 805.5,230.167 805.5,232.5C 817.167,232.5 828.833,232.5 840.5,232.5C 828.678,233.495 816.678,233.828 804.5,233.5C 804.194,230.615 804.527,227.948 805.5,225.5 Z"/></g>
<g><path style="opacity:1" fill="#9fa5c2" d="M 844.5,258.5 C 831.677,259.495 818.677,259.829 805.5,259.5C 805.5,279.833 805.5,300.167 805.5,320.5C 792.989,320.829 780.655,320.495 768.5,319.5C 780.5,319.5 792.5,319.5 804.5,319.5C 804.5,299.167 804.5,278.833 804.5,258.5C 817.833,258.5 831.167,258.5 844.5,258.5 Z"/></g>
<g><path style="opacity:1" fill="#626c9c" d="M 439.5,229.5 C 418.167,229.5 396.833,229.5 375.5,229.5C 375.5,239.833 375.5,250.167 375.5,260.5C 385.681,260.173 395.681,260.506 405.5,261.5C 395.167,261.5 384.833,261.5 374.5,261.5C 374.5,250.5 374.5,239.5 374.5,228.5C 396.34,228.169 418.006,228.503 439.5,229.5 Z"/></g>
<g><path style="opacity:1" fill="#8992b5" d="M 596.5,320.5 C 597.043,320.56 597.376,320.893 597.5,321.5C 582.672,322.826 568.005,322.826 553.5,321.5C 568.01,321.829 582.343,321.496 596.5,320.5 Z"/></g>
<g><path style="opacity:1" fill="#e62530" d="M 2120.5,370.5 C 2223.8,368.881 2301.97,411.881 2355,499.5C 2387.45,561.514 2393.78,626.181 2374,693.5C 2343.26,783.57 2281.76,840.403 2189.5,864C 2095.7,881.398 2015.87,855.898 1950,787.5C 1891.97,718.741 1873.64,640.408 1895,552.5C 1923.03,463.799 1981.53,405.966 2070.5,379C 2087.1,374.908 2103.77,372.075 2120.5,370.5 Z"/></g>
<g><path style="opacity:1" fill="#f1878c" d="M 1084.5,375.5 C 1019.17,375.5 953.833,375.5 888.5,375.5C 888.5,540.833 888.5,706.167 888.5,871.5C 887.5,706.001 887.167,540.334 887.5,374.5C 953.335,374.168 1019,374.501 1084.5,375.5 Z"/></g>
<g><path style="opacity:1" fill="#e62530" d="M 1084.5,375.5 C 1105.85,468.729 1127.01,562.062 1148,655.5C 1168.73,562.125 1189.56,468.791 1210.5,375.5C 1275.83,375.5 1341.17,375.5 1406.5,375.5C 1406.5,540.833 1406.5,706.167 1406.5,871.5C 1365.5,871.5 1324.5,871.5 1283.5,871.5C 1283.67,769.833 1283.5,668.166 1283,566.5C 1259,667.833 1235,769.167 1211,870.5C 1168.91,871.497 1126.74,871.83 1084.5,871.5C 1060.73,772.524 1037.06,673.524 1013.5,574.5C 1013.31,572.436 1012.81,570.436 1012,568.5C 1011.5,669.499 1011.33,770.499 1011.5,871.5C 970.5,871.5 929.5,871.5 888.5,871.5C 888.5,706.167 888.5,540.833 888.5,375.5C 953.833,375.5 1019.17,375.5 1084.5,375.5 Z"/></g>
<g><path style="opacity:1" fill="#eb545c" d="M 1210.5,375.5 C 1276,374.501 1341.66,374.168 1407.5,374.5C 1407.83,540.334 1407.5,706.001 1406.5,871.5C 1406.5,706.167 1406.5,540.833 1406.5,375.5C 1341.17,375.5 1275.83,375.5 1210.5,375.5 Z"/></g>
<g><path style="opacity:1" fill="#e62530" d="M 275.5,376.5 C 356.501,376.333 437.501,376.5 518.5,377C 551.631,376.957 582.964,384.291 612.5,399C 645.177,418.472 663.677,447.306 668,485.5C 674.628,535.033 658.128,574.533 618.5,604C 660.381,623.572 684.214,656.406 690,702.5C 698.103,788.822 660.603,843.989 577.5,868C 562.016,871.631 546.349,873.964 530.5,875C 445.501,875.5 360.501,875.667 275.5,875.5C 275.5,709.167 275.5,542.833 275.5,376.5 Z"/></g>
<g><path style="opacity:1" fill="#ea4c55" d="M 847.5,377.5 C 805.833,377.5 764.167,377.5 722.5,377.5C 722.5,543.5 722.5,709.5 722.5,875.5C 721.5,709.334 721.167,543.001 721.5,376.5C 763.67,376.168 805.67,376.501 847.5,377.5 Z"/></g>
<g><path style="opacity:1" fill="#e62530" d="M 847.5,377.5 C 847.5,543.5 847.5,709.5 847.5,875.5C 805.833,875.5 764.167,875.5 722.5,875.5C 722.5,709.5 722.5,543.5 722.5,377.5C 764.167,377.5 805.833,377.5 847.5,377.5 Z"/></g>
<g><path style="opacity:1" fill="#f28c91" d="M 1697.5,379.5 C 1616.5,379.5 1535.5,379.5 1454.5,379.5C 1454.5,545.5 1454.5,711.5 1454.5,877.5C 1537.17,877.5 1619.83,877.5 1702.5,877.5C 1619.67,878.499 1536.67,878.833 1453.5,878.5C 1453.5,711.833 1453.5,545.167 1453.5,378.5C 1535,378.167 1616.34,378.501 1697.5,379.5 Z"/></g>
<g><path style="opacity:1" fill="#e62530" d="M 1697.5,379.5 C 1731.05,379.091 1762.72,386.591 1792.5,402C 1825.79,422.368 1843.95,452.201 1847,491.5C 1851.9,539.184 1835.4,577.35 1797.5,606C 1845.85,632.004 1869.85,672.67 1869.5,728C 1868.76,795.052 1837.1,840.385 1774.5,864C 1751.17,872.056 1727.17,876.556 1702.5,877.5C 1619.83,877.5 1537.17,877.5 1454.5,877.5C 1454.5,711.5 1454.5,545.5 1454.5,379.5C 1535.5,379.5 1616.5,379.5 1697.5,379.5 Z"/></g>
<g><path style="opacity:1" fill="#fefefe" d="M 399.5,478.5 C 436.195,478.053 472.861,478.553 509.5,480C 526.209,481.414 538.042,489.58 545,504.5C 549.919,521.899 547.585,538.233 538,553.5C 530.938,560.783 522.438,565.617 512.5,568C 496.189,569.055 479.856,569.889 463.5,570.5C 449.628,600.409 435.628,630.242 421.5,660C 451.5,660.333 481.5,660.667 511.5,661C 526.405,661.387 539.738,666.053 551.5,675C 557.904,681.974 562.071,690.141 564,699.5C 566.726,713.217 566.726,726.883 564,740.5C 561.148,749.687 555.648,756.854 547.5,762C 536.201,767.825 524.201,771.158 511.5,772C 474.168,772.5 436.835,772.667 399.5,772.5C 399.5,674.5 399.5,576.5 399.5,478.5 Z"/></g>
<g><path style="opacity:1" fill="#fad6d8" d="M 1578.5,484.5 C 1578.5,580.833 1578.5,677.167 1578.5,773.5C 1615.83,773.5 1653.17,773.5 1690.5,773.5C 1653,774.498 1615.34,774.832 1577.5,774.5C 1577.17,677.665 1577.5,580.999 1578.5,484.5 Z"/></g>
<g><path style="opacity:1" fill="#fefefe" d="M 1578.5,484.5 C 1611.17,484.333 1643.84,484.5 1676.5,485C 1716.05,485.883 1731.88,505.716 1724,544.5C 1718.56,560.664 1707.4,570.497 1690.5,574C 1675.21,575.251 1659.88,575.918 1644.5,576C 1629.04,605.755 1613.71,635.588 1598.5,665.5C 1628.49,666.333 1658.49,666.833 1688.5,667C 1705.04,667.394 1719.21,673.227 1731,684.5C 1736.24,691.308 1739.57,698.975 1741,707.5C 1742,718.824 1742.33,730.157 1742,741.5C 1738.79,754.381 1730.95,763.215 1718.5,768C 1709.52,771.64 1700.18,773.473 1690.5,773.5C 1653.17,773.5 1615.83,773.5 1578.5,773.5C 1578.5,677.167 1578.5,580.833 1578.5,484.5 Z"/></g>
<g><path style="opacity:1" fill="#fefefe" d="M 2119.5,488.5 C 2184.66,485.314 2230.5,513.314 2257,572.5C 2272.05,616.129 2267.38,657.462 2243,696.5C 2212.38,737.052 2171.54,755.219 2120.5,751C 2076.11,744.567 2042.61,722.067 2020,683.5C 1995.1,633.776 1998.44,586.109 2030,540.5C 2053.21,511.648 2083.04,494.315 2119.5,488.5 Z"/></g>
<g><path style="opacity:1" fill="#f8cbcd" d="M 1013.5,574.5 C 1012.83,673.5 1012.17,772.5 1011.5,871.5C 1011.33,770.499 1011.5,669.499 1012,568.5C 1012.81,570.436 1013.31,572.436 1013.5,574.5 Z"/></g>
<g><path style="opacity:0.927" fill="#253475" d="M 2487.5,1066.5 C 2512.09,1063.88 2530.92,1072.88 2544,1093.5C 2552.11,1112.03 2551.11,1130.03 2541,1147.5C 2534.41,1154.09 2527.25,1159.92 2519.5,1165C 2495.54,1174.81 2474.37,1170.64 2456,1152.5C 2440.91,1132.46 2439.58,1111.46 2452,1089.5C 2461.7,1078.25 2473.54,1070.58 2487.5,1066.5 Z M 2493.5,1073.5 C 2521.68,1072.19 2539.18,1085.19 2546,1112.5C 2547.14,1123.95 2544.8,1134.61 2539,1144.5C 2520.85,1166.42 2499.35,1170.58 2474.5,1157C 2459.43,1145.13 2452.93,1129.63 2455,1110.5C 2460.91,1090.76 2473.74,1078.42 2493.5,1073.5 Z M 2486.5,1097.5 C 2495.08,1096.89 2503.41,1097.72 2511.5,1100C 2515.95,1107.12 2514.29,1112.45 2506.5,1116C 2499.84,1116.5 2493.17,1116.67 2486.5,1116.5C 2486.5,1110.17 2486.5,1103.83 2486.5,1097.5 Z"/></g>
<g><path style="opacity:0.955" fill="#253475" d="M 2479.5,1088.5 C 2489.17,1088.33 2498.84,1088.5 2508.5,1089C 2520.78,1092.04 2525.61,1099.87 2523,1112.5C 2520.77,1119.56 2515.94,1123.56 2508.5,1124.5C 2514.41,1132.66 2520.08,1140.99 2525.5,1149.5C 2521.88,1150.66 2518.21,1150.83 2514.5,1150C 2509.04,1141.58 2503.71,1133.08 2498.5,1124.5C 2495.23,1123.51 2491.9,1123.18 2488.5,1123.5C 2488.5,1132.5 2488.5,1141.5 2488.5,1150.5C 2485.5,1150.5 2482.5,1150.5 2479.5,1150.5C 2479.5,1129.83 2479.5,1109.17 2479.5,1088.5 Z M 2486.5,1097.5 C 2486.5,1103.83 2486.5,1110.17 2486.5,1116.5C 2493.17,1116.67 2499.84,1116.5 2506.5,1116C 2514.29,1112.45 2515.95,1107.12 2511.5,1100C 2503.41,1097.72 2495.08,1096.89 2486.5,1097.5 Z"/></g>
</svg>
