<svg version="1.1" id="svg2432" xmlns="http://www.w3.org/2000/svg" x="0" y="0" viewBox="0 0 2000 1564.6" style="enable-background:new 0 0 2000 1564.6" xml:space="preserve"><style>.st0{fill:#fff}.st3,.st4{fill:#26358c}.st4{fill-rule:evenodd;clip-rule:evenodd}</style><g id="layer1" transform="translate(0 403)"><g id="g260" transform="matrix(4.38589 0 0 -4.38589 592.364 24.415)"><path id="path262" class="st0" d="M317.1-152.5c-3 8.5-13.6 37.8-23.4 56.8-7.9 15.2-19.3 22.7-35 22.7-8.1 0-17.3-1.8-30.8-6.1l-.8-.3c-7.2-2.3-18.8-6-34.3-9.3-.1.2-.3.5-.4.7-2.2 3.1-5.7 4.9-9.7 4.9-2.7 0-9.8.8-19.3 2-1.9.9-3.4 1.4-4.9 1.8-1.1.3-2.3.4-3.8.4-4.2 0-10.6-1-16.1-1.9-3-.5-6.7-1.1-8.1-1.1-.8.2-2.8.9-4.5 1.5-6.6 2.4-18.3 6.6-35.6 9-1.2 3.6-2.9 7.1-5.2 10.4-1.6 2.3-4.4 3.5-7.2 3-.1 0-5.9-1-12.5-1-2 0-3.8.1-5.5.3-1.5.2-3.1.3-4.7.5-2.2.2-4.5.5-6.6.7.4 1.7.8 3.4 1 5 3.1.4 5.4 1.5 6.6 2.2.9.5 1.7 1.2 2.3 2 .3.2.6.5.9.7 1.8 1.8 2.7 4.6 2.1 7.1-.3 1.1-.8 2.2-1.6 3.1-.5 1.7-1.7 3.2-3.3 4.2.5.7 1 1.5 1.3 2.4.9 2.8.2 5.7-1.9 7.8-1.9 1.8-4.1 5.4-5.1 10.3 6.6 5.6 15 17.2 15 39.5 0 35.1-29 70.7-84.3 70.7-33.6 0-55.3-12.8-66.9-22.4-1.8.5-4 .2-5.7-.8-.8-.5-1.6-1-2.3-1.5-1.3 1-2.9 1.6-4.7 1.6-3.3 0-6.2-2.1-7.2-5.2-.3-.9-.6-2.1-.8-3.4-3.5-.7-6.6-2.7-8.7-5.8-1.5-2.2-1.8-4.9-.8-7.4-9.1-7.2-19.6-21-19.6-46.6 0-26.9 8.1-52.3 21.2-66.3 7.9-8.5 16.8-13.9 24.5-15.2.4-.4.7-.9 1.1-1.3-5.8-3.4-11.8-8.8-16.8-16.8-9.5-15.4-15.5-33.4-15.9-38.4-.1-1.5.2-3 1-4.4.3-.5 2.5-4.1 7.2-8.2 2.5-19.4 11.5-39.3 25.6-56.4 1.4-3.6 5.7-14.4 7.9-18.9 3-5.9 6.5-8.3 9.4-9.2 2.2-2.4 5.4-4.4 9.2-4.6 1.7-.7 4.2-1.5 6.9-1.5 1 0 2 .1 3 .3 3.7-1.8 8.8-3.2 13.9-3.2 5.4 0 10.4 1.6 14.6 4.7 38.2-16.5 86.4-25.8 138.1-26h2c71.9.3 138.9 18 179.4 47.5 22.4 16.4 28.6 34.7 19.8 59.4"/></g><g id="g264" transform="matrix(4.38589 0 0 -4.38589 375.276 126.865)"><path id="path266" d="M165.8-223.9c-67.7.2-131.2 17-169.8 45.1-21 15.3-21.4 29.3-15.6 45.6 7.9 22.3 16.4 42.9 22.8 55.3 5.8 11.2 13 16 24.2 16 8.4 0 18.6-2.7 27.4-5.4 2.4-.7 4.9-1.5 7.5-2.4C82.4-76.1 110-85 167.8-85c57.2 0 95.8 12.3 112.3 17.5l.8.3c12.1 3.9 20.5 5.6 27.2 5.6 11.2 0 18.5-4.8 24.3-16.2 6.4-12.4 14.9-33.1 22.8-55.3 5.8-16.3 5.3-30.3-15.6-45.6-20.2-14.7-47-26.2-79.5-34.2-29.1-7.1-61.4-10.9-93.3-11h-1" style="fill-rule:evenodd;clip-rule:evenodd;fill:#fff"/></g><g id="g268" transform="matrix(4.38589 0 0 -4.38589 529.198 -53.56)"><path id="path270" d="M273.1-98.2c-8.2 0-17.7-2.3-28.6-5.8-15.5-4.9-54.2-17.6-111.8-17.6-64.9 0-91.6 11.5-111.8 17.6-11 3.3-20.6 5.6-28.8 5.6-12 0-21.2-4.9-28.3-18.5-3.5-6.7-7.2-15.2-10.9-24.1-4.4-10.6-8.6-21.9-12.1-31.9-6.8-19.2-4.8-34.8 17.3-50.9 43.8-31.8 111-45.9 172.5-46h1.2c61.5.2 131.7 14.2 175.5 46 22.1 16.1 24.1 31.7 17.3 50.9-6.5 18.3-15.4 41.2-23 55.9-7.1 13.8-16.4 18.8-28.5 18.8m0-9.2c10.9 0 16-5.5 20.2-13.7 6.3-12.2 14.7-32.7 22.5-54.8 5.4-15.2 4.8-26.7-14-40.3-19.4-14.2-46.4-25.7-77.8-33.4-28.7-7-60.6-10.8-92.2-10.9h-1.1c-31.3.1-62.7 3.9-90.7 10.9-30.9 7.7-56.6 19-76.4 33.4-18.8 13.7-19.4 25.2-14 40.3 7.8 22.1 16.2 42.5 22.5 54.8 5.8 11.2 12.2 13.5 20.1 13.5 7.8 0 17.6-2.6 26.1-5.2 2.3-.7 4.8-1.5 7.5-2.4 20.4-6.6 48.5-15.6 107-15.6 57.9 0 97 12.4 113.7 17.7l.8.3c11.6 3.8 19.6 5.4 25.8 5.4" style="fill:#e30613"/></g><g id="g272" transform="matrix(4.38589 0 0 -4.38589 311.224 95.393)"><path id="path274" class="st3" d="m121.2-202 .2 1.8c-5.8.9-7.3-.6-7.5-2.1-.2-1.5.8-2.4 2.3-2.6 1.5-.2 3.2.5 4.1 1.3.4.3.8.8.9 1.6m4.4 3.6-1.4-10.4-2.8.4-.3 2.5c-1.7-1.5-4.2-2.3-6.5-1.9-2.9.4-5.1 2.3-4.7 5.4.4 3 3.1 6.1 11.8 4.6l.1.6c.2 1.8-.4 3.1-3.2 3.4-1.7.2-3.6 0-5.6-.6-.5.7-.7 1.4-.6 2.1.1.8.6 1.2 1.6 1.4 1.4.3 3.5.3 5.4.1 5.7-.7 6.7-3.7 6.2-7.6"/></g><g id="g276" transform="matrix(4.38589 0 0 -4.38589 333.21 96.46)"><path id="path278" class="st3" d="m136.5-202.7.2 1.9c.2 1.7 0 2.2-.3 2.8-.7 1.2-1.9 2.1-3.5 2.2-1.9.2-3.7-.7-4.2-5.3-.4-4.6 1.2-5.7 3.1-5.9 1.8-.2 3.1.6 3.9 1.5.4.5.6 1.1.8 2.8m4.7 8.9-1.6-16.8c-.4-4.6-3-8-9.1-7.4-1.9.2-4 .7-5.2 1.4-.9.5-1.2.9-1.1 1.7.1.7.5 1.5 1.2 2.1 1.4-1 3.3-1.8 5.2-2 3.4-.3 4.8 1.5 5.1 4.3l.2 2.1c-1.5-1.2-3.4-1.8-5.5-1.6-3.5.3-6.4 2.8-5.8 9.3.6 6.6 4 8.5 7.6 8.2 2.3-.2 4.1-1.3 5.4-2.9l.8 2 2.8-.4z"/></g><g id="g280" transform="matrix(4.38589 0 0 -4.38589 355.548 89.242)"><path id="path282" class="st3" d="M152.1-197.7c0-.8-.3-1.4-.6-2-2.3.8-4.6.5-6-.8-.4-.4-.7-1-.7-1.7l-.6-10.5-3.9.2.9 16.9 2.8-.2.5-2.4c1.7 1.7 4.2 2.4 6 2.3 1.2-.1 1.6-.7 1.6-1.8"/></g><g id="g284" transform="matrix(4.38589 0 0 -4.38589 368.872 99.487)"><path id="path286" class="st3" d="M161.4-204.9v1.8c-5.9.2-7.2-1.4-7.2-3 0-1.5 1.1-2.3 2.6-2.3s3.1.8 3.9 1.8c.3.4.6.9.7 1.7m3.9 4.1-.2-10.5-2.8.1-.5 2.5c-1.6-1.7-3.9-2.7-6.3-2.7-3 .1-5.4 1.7-5.3 4.8.1 3.1 2.4 6.4 11.2 6v.6c0 1.8-.8 3-3.6 3-1.8 0-3.6-.4-5.5-1.3-.5.7-.9 1.3-.8 2.1 0 .8.4 1.2 1.4 1.5 1.4.5 3.4.7 5.3.7 5.9 0 7.2-2.8 7.1-6.8"/></g><g id="g288" transform="matrix(4.38589 0 0 -4.38589 390.245 101.046)"><path id="path290" class="st3" d="M176.3-205.9c.4.5.6 1.1.5 2.8v1.9c0 1.7-.2 2.2-.7 2.8-.8 1-2.1 1.8-3.6 1.8-2.1 0-3.8-1-3.7-5.7.1-4.7 1.9-5.5 3.9-5.5 1.6 0 2.8.8 3.6 1.9m3.9 20.4.6-25-2.8-.1-.6 2.1c-1.5-1.6-3.6-2.5-5.5-2.6-3.9-.1-6.9 2-7.1 8.6-.1 6.5 2.8 8.8 6.7 8.9 1.8 0 3.8-.7 5.1-1.9l-.2 9.8 3.8.2z"/></g><g id="g292" transform="matrix(4.38589 0 0 -4.38589 404.135 95.14)"><path id="path294" class="st3" d="M185.9-201.8h3.1c3.2.2 4.4 1.1 4.3 2.8-.1 1.7-1.4 2.5-3.5 2.3-2.2-.1-3.9-1.2-3.9-5.1m10.6-4.9c.6-.6 1-1.2 1-2s-.3-1.2-1.2-1.7c-1.2-.5-2.8-1-4.8-1.1-5.3-.3-9.1 1.7-9.5 8.2-.4 6.2 2.8 9 7.8 9.3 4.6.3 7.3-1.7 7.5-4.9.2-3.5-2.8-5.3-7.7-5.6-1.2-.1-2.3 0-3.4 0 .7-3.6 2.6-4.2 5.1-4 2 .2 3.5.7 5.2 1.8"/></g><g id="g296" transform="matrix(4.38589 0 0 -4.38589 420.459 95.247)"><path id="path298" class="st3" d="M197.3-201.9c-.7 6.3 2.6 9.1 7.2 9.6 1.7.2 3.2.1 4.4-.2 1-.2 1.5-.5 1.6-1.4.1-.7-.2-1.4-.7-2.1-1.6.7-3.1 1-4.6.8-2.6-.3-4.4-1.7-3.9-6.2.5-4.6 2.5-5.6 5.1-5.3 1.5.2 3 .7 4.5 1.9.6-.6 1.1-1.2 1.1-1.9.1-.9-.3-1.3-1.2-1.7-1.3-.6-2.9-1.1-4.5-1.2-4.6-.7-8.3 1.4-9 7.7"/></g><g id="g300" transform="matrix(4.38589 0 0 -4.38589 443.173 91.375)"><path id="path302" class="st3" d="M213.2-199.2c1.3.1 2.3.2 3.1.3 3.1.5 4.3 1.4 4 3.1-.2 1.7-1.6 2.3-3.7 2-2.2-.3-3.8-1.5-3.4-5.4m10.9-4c.6-.6 1.1-1.1 1.2-1.9.1-.8-.2-1.2-1.1-1.7-1.2-.6-2.7-1.2-4.7-1.5-5.2-.7-9.2 1-10.2 7.5-.9 6.2 2.1 9.1 7.1 9.9 4.6.7 7.4-1.2 7.9-4.3.5-3.4-2.4-5.5-7.3-6.2-1.2-.2-2.3-.2-3.4-.2.9-3.5 3-4 5.4-3.6 1.9.1 3.5.8 5.1 2"/></g><g id="g304" transform="matrix(4.38589 0 0 -4.38589 257.475 13.453)"><path id="path306" class="st3" d="M83.7-144.9c-1.2-3.6-2.9-6-5.2-7.2-2.2-1.2-5-1.2-8.5-.3l-9.1 3c2.4 6.9 4.8 13.8 7.1 20.5 2.7-.8 5.5-1.6 8.2-2.5 3.7-1.1 6.2-2.8 7.4-5 1.2-2.1 1.2-5 .1-8.5m-3.7 25c-6.8 2-13.7 4.1-20.5 6.2-1.2.4-2.5-.2-2.9-1.4-6.8-19.4-13.8-38.9-21-58.1l-.3-.7c.3-.1.5-.2.8-.2 2.7-.9 5.5-1.7 8.2-2.6.6-.2 1.2-.3 1.7-.3 2.8-.2 5.5 1.4 6.5 4 1.5 4.1 2.9 8.2 4.4 12.3 3.4-1.2 7.3-2.5 8.3-2.8 5.4-1.6 10.4-2.2 14.9-1.7 2.8.3 5.4 1 7.6 2.1 5.3 2.6 9 7.3 11.1 13.8 4.5 14.2-2.3 24.5-18.8 29.4"/></g><g id="g308" transform="matrix(4.38589 0 0 -4.38589 292.053 39.091)"><path id="path310" class="st3" d="M107.8-162.8c4.1 9.6 8.9 17.4 14.9 24.2 3.5-8.3 5.4-17.1 6-27.4-7 1.1-14 2.1-20.9 3.2m18.6 36.8c-.7.1-1.3.2-2 .3-4.2.6-8.4-.7-11.3-3.5-12.4-12.2-23.4-32.5-29.4-54.3-.1-.2-.1-.5-.2-.8.3 0 .6-.1.8-.2 3.2-.5 6.3-1.1 9.5-1.6 3.3-.6 6.6 1.3 7.4 4.2.9 3 1.6 5.5 2.3 7.7 8.3-1.3 16.7-2.6 25.1-3.8-.1-2.5-.2-5.1-.5-7.9-.3-3 2.2-5.8 5.6-6.3 3.2-.4 6.4-.9 9.6-1.3.3 0 .6-.1.8-.1 0 .3 0 .5.1.8 2.2 22.6-1.7 46.1-9.9 61.4-1.5 2.9-4.4 4.9-7.9 5.4"/></g><g id="g312" transform="matrix(4.38589 0 0 -4.38589 406.608 5.893)"><path id="path314" class="st3" d="M187.7-139.6c0 1.2-1.1 2.2-2.4 2.1-3.5-.1-7-.2-10.4-.2-1.3 0-2.3-1-2.3-2.2.2-9.2.3-18.4.5-27.6-7.8 11.5-18.1 22.1-28.6 29.5l-.2.2h-.3c-2.6 0-5.2 0-7.8.1-1.3 0-2.4-1-2.4-2.2-.4-20.5-.7-40.9-1.1-61.4v-.7h.8c2.8 0 5.6-.1 8.4-.1 1.8 0 3.5.6 4.7 1.8 1.2 1.1 1.9 2.5 1.9 4.1v38.1c11.1-10 21.5-25.3 26.6-39.7.9-2.4 3.5-4.1 6.4-4 2.4 0 4.8.1 7.3.2h.8v.7c-.8 20.4-1.4 40.8-1.9 61.3"/></g><g id="g316" transform="matrix(4.38589 0 0 -4.38589 475.125 47.542)"><path id="path318" class="st3" d="M235.4-168.6c-4.1-4.2-11.1-5.9-16-6.6-4.2-.7-7.8 0-10.7 1.9-4.3 2.8-7.2 8.5-8.6 16.8-2.4 13.8 1.4 21.3 11.6 22.9 4.6.7 11.6.8 16.3-1.2.7 1.8 2.3 5.6 1.7 8.4-.6 3.3-3 5-7.2 5.3-4.9.3-8.8.2-13.5-.6-19.2-3-28-16-24.7-36.9 1.8-11.4 6.4-19.6 13.5-24.4 4.7-3.1 10.4-4.7 16.9-4.6 2.1 0 4.3.2 6.5.6 4.8.8 9.3 1.7 14.1 4.2 3.9 2 5.6 4.1 5 7.3-.5 2.4-2 6-4.9 6.9"/></g><g id="g320" transform="matrix(4.38589 0 0 -4.38589 528.97 33.635)"><path id="path322" class="st3" d="M273-159c-1.4-2.7-4-4.6-7.7-5.7-3.4-1.1-14-4.3-21 16.1-2.4 7.1-3 12.4-1.7 16.4 1.2 3.7 3.9 6.1 8.5 7.5 1.5.5 3 .7 4.4.8 7 .2 12.2-5.1 16.3-16.2 2.9-8.4 3.4-14.7 1.2-18.9m13.6 23.7c-7.8 20.5-21 27.8-39.6 22.1-18.7-5.7-24.8-19-17.9-39.8 3.8-11.3 9.6-18.9 17.3-22.5 3.8-1.8 7.9-2.6 12.4-2.5 3.4.1 6.9.7 10.7 1.9 8.7 2.7 14.8 7.2 17.9 13.2 3.8 7.1 3.4 16.4-.8 27.6"/></g><g id="g324" transform="matrix(4.38589 0 0 -4.38589 219.822 100.374)"><path id="path326" class="st0" d="M57.5-205.5c.6-.3 1.3-.6 1.9-.9-.7.3-1.3.6-1.9.9"/></g><g id="g328" transform="matrix(4.38589 0 0 -4.38589 242.212 -131.82)"><path id="path330" class="st0" d="M73.1-43.6c-.3-.1-.7-.2-1.1-.2h-.1c-1.2-.2-2.2-.4-3.2-.4.6.5 1 .9 1.4 1.4l.1.1c.1.1.2.3.3.4.1.1.2.2.3.4.1.1.1.2.2.3.1.2.1.3.2.5l.1.5-.3.3-.3.4h-.6c-.3 0-.6-.1-.8-.3-.3-.3-.6-.6-1-.9l-.1-.1c-.3-.3-.7-.5-1.1-.8l-.1-.3c-.4-.3-.7-.5-1.1-.7h-.1c-.4-.2-.8-.5-1.2-.7l-.1-.1c.7 1 1.3 2 1.7 3.1.1.2.1.4.2.5v.1c.2.6.4 1.2.4 1.8V-36.9l-.2.9H65l-.3-.6c-.2-.4-.4-.9-.6-1.3 0-.1-.3-.7-.3-.7-.1-.2-.2-.3-.2-.5-.1-.2-.2-.3-.2-.4l-.1-.2s-.2-.4-.3-.4c-.1-.2-.2-.3-.3-.5l-.3-.4c-.2-.2-.3-.4-.4-.6l-.1-.2c-.2-.2-.3-.4-.5-.6l-.1-.1c-.2-.2-.3-.4-.5-.6l-.5-.5-.1-.1c-.4-.4-.8-.7-1.2-.9v.1c1.8 8.9-1.8 14.4-4 16.9l-.3.3-1.2 1.2c-.3.3-.7.4-.9.4-.6 0-1.1-.4-1.2-1-.3-1-.7-2.1-1.1-3.1-.6-1.2-1.2-2.4-2-3.6l-1.2-1.5c-1.1-1.4-2.5-2.6-3.9-3.8-.2-.2-.5-.3-.7-.5-.4-.3-.9-.6-1.3-.9-.8-.5-1.7-1-2.5-1.5-.2-.1-.5-.2-.7-.3.1.2.2.4.3.5.3.5.5 1 .7 1.5.1.3.2.5.3.7.2.5.3.9.5 1.4.3 1 .5 2.3.4 2.9-.2.9-.7 1.2-1.2 1.2-.2 0-.9-.1-1.2-.9-.2-.6-.4-1.2-.7-1.9-.3-.7-.7-1.5-1.1-2.3-.3-.5-.6-1.1-1-1.6-.2-.4-.5-.8-.8-1.2-.1-.2-.3-.4-.4-.6-.5-.6-.9-1.3-1.5-1.9-2-2.5-4.5-5-7.3-7.3 0 .2 0 .4.1.5.1.8.2 1.6.2 2.3v1c-.1 2.6-.7 4.3-1.8 5.1-.1.1-.4.3-.8.3h-.4l-.3-.2c-.4-.2-.6-.7-.5-1.2.4-5.4-.2-8.1-.9-9.3-1 3.1-2.7 5.9-4.9 8.3l-.6.6c-.4.4-.8.8-1.3 1.2-1.1 1-2.4 1.9-3.7 2.7-2.4 1.4-4.4 2.1-5.2 2.3l-.2.1c-.6 0-1.1-.5-1.2-1.1 0-.2 0-.5.1-.7 2.9-6.2 4.5-11.7 4.8-16.3v-2.6c0-.8-.1-1.6-.3-2.3 0-.3-.1-.8-.2-1.2-.1-.2-.1-.4-.2-.6-.3-.9-.7-1.7-1.2-2.4 0 1-.2 1.8-.3 2.3 0 .2-.1.3-.1.5-.1.4-.4.7-.9.8H4.1l-.2-.8c-.3-1.3-.8-2.5-1.6-3.6-.1-.2-.2-.3-.4-.5-.8-1.1-1.8-2.1-2.9-2.9l-.9-.6c-.3-.2-.6-.4-.9-.5-1.2-.7-2.2-1.1-2.9-1.3-.2 1-.4 1.9-.7 2.8-.4 1.2-1 2.2-1.6 3.2-.9 1.2-1.9 2.2-3.1 3.1-.6.4-1.2.7-1.8 1-1.4.6-2.9.9-4.3.9-.5 0-1.1 0-1.6-.1-4.1-.7-8.5-4.2-8.5-12 0-2.4.9-4.9 2.5-7 .1-.2.3-.4.4-.5.3-.3.6-.7 1-1 1.4-1.3 3.1-2.3 5.1-2.9 1-.3 2.1-.5 3.2-.6H-12.4c.3 0 .7.1 1 .1v-.1c.1-2 .6-3.9 1.4-5.7l.2-.5c.1-.2.2-.5.4-.8.9-1.8 2.8-5.5 6.1-9.7 9.2-12 26.9-26.6 58.7-27.7 1.2 0 2.4-.1 3.6-.1 13.1 0 24.6 2.6 34.3 7.6 1.5.8 2.9 1.6 4.2 2.4 2.9 1.9 5.6 4 8 6.3 1.9 1.8 3.6 3.7 5.1 5.8 9.7 12.8 8.2 25.8 7.1 30.8-1.5 7.1-.7 12.3 0 16.9.3 2.3.7 4.5.7 6.8 0 0 0 4.5-1.3 5.9-.4.4-.8.5-1.1.5H115.7c-1.3-.2-2.6-.4-4-.4-2.2 0-4.3.3-6.6 1h-.2c.3.1.5.3.8.4 1.1.6 2 1.3 2.7 2 .8.8 1 1.1 1.2 1.3.2.4.2.8 0 1.1l-.3.6H108.5c-.3 0-.5-.2-.6-.3-1.6-1.2-3.3-2.1-5-2.8-.3-.1-.5-.2-.8-.3.1.2.2.4.4.6.5.9.9 1.9 1.1 2.9.1.5.1 1 .1 1.4 0 1.3-1 1.4-1.2 1.4-.2 0-.6-.1-1-.5-.1-.2-.2-.3-.3-.6-.2-.5-.4-.9-.7-1.4-.3-.4-.6-.8-.9-1.1-.3-.3-.7-.6-1-.8-.3-.2-.7-.5-1.1-.6-.3-.2-.7-.3-1.1-.5-.3-.1-.5-.2-.8-.3.2.6.4 1.2.6 1.7.2.5.3 1.1.4 1.6.2 1 .3 2 .3 3.1 0 .5 0 1-.1 1.4-.1 1.1-.3 2.2-.6 3.2-.1.4-.2.8-.4 1.1-.4 1.2-1 2.4-1.7 3.4-.1.2-.3.4-.4.6-.2.3-.3.5-.4.6-.2.3-.6.5-1 .5-.5 0-1-.3-1.2-.8l-.6-1.5-.2-.4c-.2-.4-.3-.8-.5-1.2l-.1-.2c-.2-.4-.4-.9-.7-1.3l-.2-.3c-.2-.3-.4-.7-.6-1l-.2-.3c-.2-.4-.5-.7-.7-1.1l.2-.1-.6-.9-.2-.2c-.3-.3-.5-.6-.8-1l-.1-.1c-.2-.3-.5-.5-.8-.8l-.2-.2c-.2-.2-.5-.5-.8-.7-.3-.3-.6-.5-.9-.7l-.2-.2c-.2-.2-.5-.4-.7-.5l-.2-.2-.9-.6-.2-.2c-.2-.1-.4-.3-.7-.4l-.2-.1c-.3-.2-.6-.3-.8-.5l-.2-.1c-.2-.1-.4-.2-.7-.3l-.3-.2-.6-.3-.4-.1-.6-.3-.4-.1c-.2-.1-.3-.1-.5-.2l-.4-.1c-.2-.1-.5-.2-.7-.2-.1 0-.8-.2-.8-.2-.2 0-.3-.1-.5-.1v-.1z"/></g><g id="g332" transform="matrix(4.38589 0 0 -4.38589 136.46 4.62)"><path id="path334" class="st0" d="M-.7-138.7S-4-167 23.4-200.4c2.7-3.3 2.3-6.2 7.9-18.4 1.4-3.1 4.2-8.5 7.1-6.6 0 0 1.7-5 6.7-4.4 0 0 3.9-3.3 9-.2 5.8-3.7 16.6-8.7 25.3 1.4 0 0-7.4 3.4-10.9 5.4 0 0-8.9 1.8-11.8 9.2 0 0 11.2-1.5 16.5 1.6 5.3 3.2 4.5 11.3-1.9 11.2-6.4-.1-8-2.3-14.5.2s-13.4 6.5-16.3 5.5c0 0-9.5 23.7-9.6 46.5L-.7-138.7z"/></g><g id="g336" transform="matrix(4.38589 0 0 -4.38589 336.105 -54.785)"><path id="path338" class="st0" d="M138.5-97.3s31.9-4.6 38.2-6.9c6.3-2.3 10.2-5.4 27.4-1.9 0 0 8.3 1.5 15.1-.9 2.2-.8 9.9-.9 13.6-1.8 3.7-1 10.3.5 11-1.4.8-2 1.2-5.9-.4-7.2-1.6-1.3-2.6-2-3.9-1.6 0 0-1-11.6-20.4-2.9-4.2 1.9-5.4 2.5-6.4 2.5l-7.8-1.2s5.8-2.1 8.2-6.4c2.4-4.3 4.9-10.8-.4-10.8-5.8 0-6.2 4.3-8.3 4.9-2.1.6-17.1 6.9-19.5 9.6 0 0-33.1.1-47.8 5.3l1.4 20.7z"/></g><g id="g340" transform="matrix(4.38589 0 0 -4.38589 237.23 -88.686)"><path id="path342" class="st4" d="m69.6-73.7.4.4c1.1 1.3 3.3 2.7 6.9 2 3.5-.6 3.9-4.9 2.5-7.7l-.6-.9c-.4-.5-.7-.9-.5-1 .1 0 .5.2 1.3.7.8.5 1.8 1.3 2.5 2.5.2.4.5.8.6 1.3 2.3 6-3.8 10.8-9.7 7.5-.7-.4-1.4-.9-1.9-1.4-.8-.8-1.4-1.7-1.7-2.5-.7-1.4-.5-1.6.2-.9"/></g><g id="g344" transform="matrix(4.38589 0 0 -4.38589 255.764 -93.187)"><path id="path346" class="st4" d="M82.5-70.5c0-.1.1-.1 0 0 1.1-.2 2.9 3.8 9.3 4 4.1.1 6.2-.9 7.6-1.6.1 0 .2-.1.3-.1-1.7-1.3-1.8-3.1-1.8-3.3s.8 1.2 2.9 2.4c1.9 1.1 3.8 1.2 4.4 1.3h.2c-.8.4-2.5 1.2-4.5.4-.6 2.2-3.2 6.8-9.3 6.3-7.7-.7-9.7-8.8-9.1-9.4"/></g><g id="g348" transform="matrix(4.38589 0 0 -4.38589 208.792 -115.658)"><path id="path350" class="st4" d="M49.8-54.9c4.9.9 7.3-1.5 7.7-.7.4.8-2.3 4.8-8.3 3.6-5.6-1.1-6.6-6.2-6-6.6.6-.3 2.4 2.9 6.6 3.7"/></g><g id="g352" transform="matrix(4.38589 0 0 -4.38589 143.1 -104.263)"><path id="path354" class="st4" d="M4-62.8c-.9 0-1.9-.2-3.1-.7 0 0 2.9-.2 4.3-1.7l.3-.3s-4.3-1.3-2.7-4.6c0 0 2.5 5.9 6.9-.1 0 0-.1 1-.5 2.2-.7 2.1-2.2 5-5.2 5.2"/></g><g id="g356" transform="matrix(4.38589 0 0 -4.38589 269.786 -117.601)"><path id="path358" class="st4" d="M92.3-53.5c4-.4 5.5-3.8 6-3.4.6.4-.2 5.6-5.5 6.2-5.7.6-8.6-3.9-8.1-4.6.4-.7 2.9 2.3 7.6 1.8"/></g><g id="g360" transform="matrix(4.38589 0 0 -4.38589 241.607 -56.409)"><path id="path362" class="st4" d="M72.6-96.2c16.7.5 23.9 12.6 25.4 15.5.7-.9 1-1.8 1-1.8s1 2.1-1.2 4c-1.4 1.3-3.7-.2-3.7-.2 1.1-.1 1.9-.5 2.6-.9-1.1-2.4-6.3-11.2-23.6-12.7-1.2-.1-2.3-.2-3.5-.2C53-92.7 44.2-83.3 42-80.7c.7.3 1.4.5 2.3.6h.9l-.2.2c-.1.1-.3.2-.4.3-.9.5-2.7 1.2-4.8-.3-1.6-1.1-2-2.4-2-3.4v-.4c.1-.8.4-1.4.4-1.4s0 .1.1.3c0 .1.1.2.2.4 0 .1.1.1.1.2.4.7 1 1.6 2 2.4 1.3-2.1 4.9-7 12.1-10.5.8-.4 1.5-.7 2.4-1.1.8-.3 1.7-.6 2.6-.9 4-1.3 9-2.1 14.9-1.9"/></g><g id="g364" transform="matrix(4.38589 0 0 -4.38589 204.932 -87.958)"><path id="path366" class="st4" d="M47.1-74.2s-.4 2.8-3.4 4c1.5 1.1 4 2.9 8.7 3.1 7 .3 9.5-4 10.6-3.7.1 0 .1.1.1.1v.3c0 1.9-2.7 9-10.5 8.9-7-.1-10-5.7-10.6-8.4-2.3.3-4-.8-4.8-1.4 0 0 2.8.5 5.9-.7 2.4-.8 3.7-1.9 4-2.2"/></g><g id="g368" transform="matrix(4.38589 0 0 -4.38589 240.638 -51.457)"><path id="path370" class="st4" d="M72-99.6c-2.9-.5-4.8.2-3.6-.6.7-.5 1.9-1.1 3.6-.9 2 .2 3.1 1.3 3.7 2.2.6 1.1-.7-.2-3.7-.7"/></g><g id="g372" transform="matrix(4.38589 0 0 -4.38589 449.331 -35.58)"><path id="path374" class="st4" d="M217.4-110.7c-.3-2-2.1-2.9-3.4-3.2-1 2.3-3.2 2.7-5.7 4-3.8 1.9-7.5 4.1-10.7 5.9 6-1.1 14.4-1.9 16.2-2 2.9-.1 4-1.9 3.6-4.7m-6.3-7.5c-3.8-4.4-14.5-.7-20.3 2.8-3.9 2.3-6.1 1.7-6.7 1.8.3-.1 1.1-.3 1.9-1.1l-6.9-1.1s-3.7 1.6-4.2.8c0 0 3.6-2.2 5.4-3 1-.5 8-4.8 8.9-10.6.5-3.4-4.2-4.9-6.5-2.4-4.5 5-9.1 5.8-10.8 6.6-7.3 3.4-13.3 5.7-13.9 10.8 0 0-1-2.2 0-4.1-15.6-.7-36.1 2.8-44.2 4.4 1.7 3.8 4 10.5 3.5 18.1 7.9-1 21.7-3.6 43.1-9.9 3.8-1.1 21.4 2.6 26.1 2.8 4.7.3 17.8-8.6 21-10 3.2-1.3 6.4-2.5 3.6-5.9M8.2-106.3c-32.1 1.1-49.5 16.4-57.9 27.3-3.2 4.1-5.1 7.7-6 9.5-.1.3-.3.6-.4.8v.1c0 .1-.1.1-.1.2v.1c0 .1 0 .1-.1.2-.8 2-1.2 3.8-1.3 5.4v.7c0 .1 0 .3-.1.4-.1.1-.1.2-.3.2-.6-.1-1.2-.2-1.8-.2h-2.5c-1.1.1-2.1.3-3 .6-1.9.6-3.4 1.5-4.7 2.7l-.9.9c-.1.2-.3.3-.4.5-1.5 1.9-2.3 4.2-2.3 6.4 0 6.8 3.5 10.3 7.6 11 1.7.3 3.6 0 5.3-.7.6-.3 1.1-.6 1.7-.9 1.1-.7 2-1.7 2.8-2.8.6-.9 1.1-1.8 1.5-2.9.4-1 .6-2.1.7-3.3 0-.2.2-.3.3-.3.7 0 2.3.5 4 1.5l.9.6c.3.2.6.4.9.7 1.1.8 2.2 1.9 3.1 3.2.1.2.3.4.4.6.7 1.1 1.3 2.5 1.7 3.9 0-.1.1-.3.1-.4.2-.9.4-2.2.2-3.6 0-.2-.1-.5-.1-.7 0-.1 0-.2.1-.2h.2c1.3 1 2.4 2.5 3.2 4.6.1.2.1.4.2.6.1.4.3.9.3 1.4.1.7.2 1.5.3 2.4v2.8c-.3 4.3-1.7 9.7-4.9 16.6v.1c0 .1.1.2.2.1.7-.2 2.6-.9 4.9-2.2 1.1-.7 2.4-1.5 3.6-2.5.4-.3.8-.7 1.2-1.1l.6-.6c2.2-2.3 4.1-5.4 5.1-9.4 0-.1.2-.2.3-.2h.1c.8.5 2.8 2.8 2.1 11.3v.2c.1 0 .2-.1.2-.1.4-.3 1.3-1.2 1.4-4.3v-.9c0-.6-.1-1.4-.2-2.2-.1-.8-.2-1.7-.4-2.7 0-.2.2-.3.3-.2 4 3.1 7 6.1 9.2 8.8.5.7 1 1.3 1.5 2 .2.2.3.4.4.6.3.4.5.8.8 1.2.4.6.7 1.1 1 1.7.5.9.9 1.7 1.2 2.3.4.8.6 1.5.8 2 .1.3.3.3.3 0 .1-.3 0-1.2-.4-2.4-.1-.4-.3-.8-.4-1.3.4-.8.3-1 .2-1.2-.2-.5-.4-.9-.7-1.4-.5-1-1.1-1.8-1.9-2.6l-.6-.6s-.1-.1-.1-.2.1 0 .2 0c.5.2 1.6.5 3 1.2l1.2.6c.8.4 1.7.9 2.6 1.5.5.3.9.6 1.4 1 .2.2.5.3.7.5 1.4 1.1 2.8 2.4 4.1 3.9.4.5.8 1 1.2 1.6.8 1.1 1.5 2.4 2.1 3.7.5 1 .9 2.1 1.2 3.2 0 0 .1.3.3.1 0 0 .9-.9 1.2-1.1l.3-.3c2.1-2.4 5.4-7.6 3.8-16-.1-.5-.2-1.1-.4-1.7 0-.2.1-.3.2-.2.6.1 1.8.5 3.2 1.7.2.2.4.3.6.5l.6.6s0 .1.1.1c.2.2.3.4.5.6 0 .1.1.1.1.2.2.2.3.4.5.6.1.1.1.2.2.3.1.2.3.4.4.6.1.1.2.3.3.5l.3.6c.1.2.2.5.4.7.1.2.2.3.2.5.2.4.4.8.6 1.3 0 .1.1 0 .1 0v-1.2c-.1-.4-.2-.9-.4-1.5 0-.2-.1-.3-.2-.5-.3-.9-.9-1.9-1.6-2.9-.1-.2-.3-.4-.4-.6 0 0 0-.1-.1-.1-.2-.2-.3-.4-.5-.6-.6-.7-1.4-1.4-2.3-2.1-.1-.1 0-.3.1-.3 1.1.4 2.8 1.1 4.7 2.2.4.2.8.5 1.2.7h.1c.4.2.8.5 1.2.8 0 0 .1 0 .1.1.4.3.8.5 1.1.8 0 0 .1 0 .1.1.4.3.7.6 1.1.9l.1.1v-.1c0-.1-.1-.1-.1-.2-.1-.1-.1-.2-.2-.3-.1-.1-.2-.2-.3-.4-.6-.7-1.5-1.6-3-2.5-.2-.2-.5-.3-.8-.5-.1-.1-.1-.3 0-.3 1 0 3.4-.1 6.4.5h.2c.3.1.7.1 1 .2h.1c.2 0 .3.1.5.1.1 0 .2.1.3.1.2 0 .3.1.5.1.2.1.5.1.7.2.1 0 .3.1.4.1.2.1.3.1.5.2.1 0 .3.1.4.1.2.1.4.2.7.3.1 0 .2.1.4.2s.5.2.7.3c.1 0 .2.1.3.2.2.1.5.2.7.3.1 0 .2.1.2.1.3.2.6.3.9.5.1.1.2.1.3.2.2.1.5.3.7.4l.2.2.9.6c.1 0 .1.1.2.2.2.2.5.4.7.6.1.1.2.1.2.2.3.2.6.5.9.8l.1.1c.3.2.5.5.8.7l.2.2c.3.3.5.6.8.8l.1.1c.3.3.6.6.8 1 .1.1.1.2.2.3.2.3.4.6.7.9l.2.2c.3.4.5.7.8 1.1.1.1.1.2.2.3.2.3.4.7.6 1 .1.1.1.2.2.3.2.4.5.9.7 1.3 0 .1.1.2.1.2-.2.8-.1 1.1.1 1.6.1.1.1.3.2.4l.6 1.5c0 .1.2.2.3.1.1-.1.2-.3.4-.6.1-.2.2-.4.4-.6.5-.8 1.1-1.9 1.6-3.2.1-.3.2-.7.3-1.1.3-.9.5-1.9.6-3 0-.4.1-.9.1-1.3 0-.9-.1-1.9-.2-2.9l-.3-1.5c-.3-1-.7-2.1-1.2-3.2v-.1c0-.1.1-.2.2-.2.2 0 .4.1.6.1.5.1 1.2.3 2 .6.4.1.8.3 1.2.5.4.2.8.4 1.2.7.4.3.8.6 1.2 1 .4.4.7.8 1 1.2s.6 1 .8 1.6c.1.2.1.3.2.3 0 .1.1.1.1.1.1 0 .1-.2.1-.4 0-.3 0-.7-.1-1.2-.1-.7-.4-1.6-1-2.5l-.6-.9c-.3-.3-.5-.6-.9-.9-.3-.3-.7-.6-1.1-.9-.1-.1 0-.2.1-.2.3 0 .8.1 1.4.3.5.1 1 .3 1.6.5.4.1.8.3 1.2.5 1.5.6 3.3 1.6 5.2 3l.1.1s.1 0 0-.1c-.1-.2-.5-.6-1-1.1-.5-.5-1.3-1.2-2.5-1.9-.8-.5-1.7-.9-2.8-1.3-.1 0-.1-.1-.1-.2 0 0 0-.1.1-.1s.2-.1.4-.1c.1 0 .2-.1.3-.1h.1c.4-.1 1-.3 1.7-.5 2.5-.7 6.4-1.5 11-.6 1 .2 1.4-3.3 1.4-5.3-.1-6.7-3-13.2-.6-23.9 1.6-7.3 1.4-19-7-30-1.5-1.9-3.1-3.8-5-5.6-2.3-2.2-4.9-4.3-7.8-6.1-1.3-.8-2.7-1.6-4.1-2.4-9.5-5.3-21.8-8.4-37.5-7.8m206.9 2.1c-4.3 0-15.3 1.4-21.4 2.2-1.7.8-3.1 1.5-4.4 1.7-4.6 1.1-22.1-2.8-26.7-2.9-4 0-17.7 8.2-45.8 11.2-.7 4.2-2.3 8.5-5.3 12.8 0 0-10.6-1.8-20-.8-7.7.8-17.4 2.1-21 1.6 3.9 7.9 4.9 15.4 4 19.9 5.1-1.8 9-.2 10.3.6.2.1.1.4-.1.4-4.2.1-6.9 2.5-7.6 3v.1c4.1-2.6 7-2.7 9.1-2.1l.2.1c.2.2-.1.3-.1.3-4.3.9-7.3 2.5-8.3 3.6 0 .1 0 .1 0 0 2.1-1.2 4.6-1.7 6.6-1.4.5.1.5.3 0 .4-2.4.7-3.3.8-5.5 2.9-4.3 4.1-2.4 9.9-2.4 9.9 2.4-2.8 5.4-2.3 6.2-2.2.2 0 .2.2.1.4-3.5 3.4-7.3 10.2-7.9 19.1C82-19.1 91.2-9.6 91.2 13.1c0 31.3-26.5 63.3-76.9 63.3-47.1 0-68.7-26.4-71.2-29.8-.1-.2-.4-.1-.4.1-.5 1.9 1 4.9 3 7 .2.2-.1.6-.3.4-2.2-1.3-5.7-3.8-6.7-8-.1-.4-.6-.5-.8-.2-.9 1.3-2.6 4-2.9 7.1 0 .3-.4.3-.5.1-.6-1.8-1.4-5.5.7-9.2.1-.2-.1-.3-.2-.3-1.8.9-7.6 3.2-11-1.6-.1-.2 0-.4.2-.4 1.6.2 6.7.5 8.2-2.3.1-.2 0-.4-.2-.4-3.2-.9-27.4-9.3-27.4-46.5 0-24.5 7.2-48.4 19.3-61.3 8.2-8.7 17.1-13.5 23-13.1 3.1-4.4 6.7-8.1 10.6-11.4-5.8-.6-16.1-5.1-23.9-17.7-9.3-15-14.6-31.9-14.9-35.2 0 0 2.3-4 7.8-8.1.4-4.1 2.3-29.3 25.1-56.4 0 0 5.6-14.4 8.1-19.4 2-3.9 4.5-6.2 6.8-5.5 0 0 2.5-5 6.8-4.2.8-.5 5.9-3.1 8.8-.4.8-.9 16.2-9.8 26.7 1.8l-1.9.9c-2.8-4.3-11.4-6.2-19.2-3.1-6.4 2.5-7.2 4.4-8.3 5.9 0 0 .4-2.8 1.6-4.3-5.7-2.4-8.8 4.3-8.8 4.3-.7-1.5.5-3.2.5-3.2-5.3-.4-6.1 6.6-6.1 6.6s-.6-1.6-.4-2.6c0 0-3.2-.6-6.8 8.6-3.1 7.9-5.1 14.4-5.9 15.5-1.1 1.7-16.7 18.2-22.4 52.6 6-3.3 14.5-6 25.8-5.6.7-7.9 3.1-21.8 11-41.8-.7-.3-1.3-.7-1.8-1.3 0 0 5.2 1.3 11.1-2 5.2-2.9 11-4.8 15.4-4.7 4.9.1 9.8 2.3 10.9-1.6 1.5-5-1.8-6.5-4.2-7.3-3.2-1.1-11.2-1.8-18.1.1-1.3.3-1.8.4-.1-.7.8-.5 1.8-1 3.2-1.4 1.1-1.8 3.5-5.5 7.2-7.9 1.8-1.2 3.7-2.1 6.5-1.6 0 0-3.9 2.1-5.5 3-4.1 2.5-5 4-5.9 5.8 3.3-.6 7.7-.7 13.6.9 3.9 1.1 7.4 4.2 5 10.4-1.9 4.9-8.4 2.6-12.8 2.2-4.4-.5-12.2 3.5-15.4 4.9-2 .8-4.5 1.6-6.8 1.5-1.6 4.1-8.3 22.3-8.7 41.6 1.8.2 3.7.4 5.6.8 0 0 3.1 29.9 18.7 54.4 6.8-1.8 13.3-2.7 18.9-3H5c2.8-.1 5.4-.1 8 0 12.7.4 23.1 3.1 31.5 7 10.9-2.7 49.5-11.8 67.7-13.2 0 0 .2.3.5.8 21.8-5.3 46.5-4.3 46.5-4.3s4.5-3.2 12.7-6.3c6.4-2.5 7.9-3.4 10.6-6.8 2-2.4 9.7-1.8 8.6 4.7-1 6.2-6.4 10.7-10.8 12 0 0 4.8 0 6.9.6 1.7.5 4.4-3.7 16.7-5.9 6.7-1.2 10.2 3.6 10.6 6.2 3.4.3 4.9 3.7 4.9 3.7 1.4 4.7-.7 7.9-4.3 7.9"/></g><g id="g376" transform="matrix(4.38589 0 0 -4.38589 413.205 -32.436)"><path id="path378" class="st4" d="M192.3-112.9c-.2 0-.2 0 0 0"/></g><g id="g380" transform="matrix(4.38589 0 0 -4.38589 530.9 -21.198)"><path id="path382" class="st3" d="M274.3-120.7c-4.5 0-7.9 3.5-7.9 7.8 0 4.5 3.4 8 7.9 8v-1c-4 0-6.7-3-6.7-7 0-3.8 2.8-6.8 6.7-6.8v-1zm.2 15.8c4.3 0 7.7-3.5 7.7-8 0-4.4-3.4-7.8-7.7-7.8h-.2v1h.2c3.8 0 6.7 3 6.7 6.8 0 4-2.9 7-6.7 7h-.2v1h.2z"/></g><g id="g384" transform="matrix(4.38589 0 0 -4.38589 529.676 -33.13)"><path id="path386" class="st3" d="M273.5-112.4h2.2c.2-.1.4-.2.5-.4.1-.2.2-.5.2-.8 0-.3-.1-.5-.1-.7l-.4-.4c-.2-.1-.6-.1-1.3-.1h-1.1v2.4zm0-7.9v4h.3c.3 0 .6 0 .7-.1l.4-.4c.1-.2.4-.7.8-1.4l1-2.1h1.7l-.9 1.9c-.3.7-.6 1.3-.8 1.5-.2.3-.5.6-.8.8.6.1 1.1.4 1.4.9.3.5.5 1.1.5 1.8 0 .6-.1 1.1-.3 1.5-.2.4-.5.7-.8.9-.3.2-.9.3-1.7.3h-3v-9.5h1.5z"/></g></g></svg>