<?xml version="1.0" standalone="no"?>
<!DOCTYPE svg PUBLIC "-//W3C//DTD SVG 20010904//EN"
 "http://www.w3.org/TR/2001/REC-SVG-20010904/DTD/svg10.dtd">
<svg version="1.0" xmlns="http://www.w3.org/2000/svg"
 width="2678.000000pt" height="1498.000000pt" viewBox="0 0 2678.000000 1498.000000"
 preserveAspectRatio="xMidYMid meet">

<g transform="translate(0.000000,1498.000000) scale(0.100000,-0.100000)"
fill="#243746" stroke="none">
<path d="M13190 14974 c-622 -32 -1268 -187 -1577 -380 -147 -91 -273 -242
-273 -324 1 -81 80 -161 235 -235 88 -43 378 -145 409 -145 9 0 16 -3 16 -6 0
-3 -28 -38 -63 -78 -277 -313 -501 -711 -644 -1146 -76 -232 -136 -505 -170
-782 -26 -206 -25 -764 0 -963 97 -746 337 -1345 740 -1845 130 -161 396 -401
535 -482 l29 -17 56 107 c191 370 337 931 406 1557 37 336 43 469 51 1155 6
532 11 715 24 820 74 611 233 1045 504 1371 249 300 610 490 980 516 l82 6
-72 53 c-217 159 -504 282 -768 330 -117 22 -365 29 -486 15 -372 -44 -706
-194 -1026 -460 l-98 -81 -44 10 c-80 18 -210 62 -267 91 -203 102 -197 220
15 354 120 76 282 139 504 196 684 175 1557 169 2187 -15 244 -71 500 -186
584 -262 96 -86 98 -142 11 -217 -79 -68 -299 -143 -461 -157 -122 -11 -360
-52 -377 -65 -1 -1 16 -40 38 -86 56 -118 73 -205 73 -374 -1 -158 -16 -265
-71 -495 -35 -148 -37 -163 -36 -330 0 -163 2 -184 31 -300 32 -128 55 -196
137 -402 25 -64 46 -133 46 -153 0 -49 -35 -80 -122 -106 -131 -40 -141 -77
-143 -494 -1 -324 -5 -357 -47 -410 -75 -96 -261 -87 -748 36 -129 32 -244 62
-256 65 -21 5 -21 2 -28 -123 -48 -910 -212 -1674 -460 -2150 l-53 -101 67
-31 c416 -185 858 -209 1285 -69 118 38 327 141 440 215 678 446 1147 1299
1270 2308 51 416 30 929 -55 1347 -124 604 -409 1192 -765 1577 -37 40 -52 62
-44 65 8 2 48 14 89 26 123 36 274 98 342 141 123 79 170 141 172 223 1 119
-117 232 -381 365 -338 169 -754 280 -1208 321 -123 11 -499 20 -615 14z"/>
<path d="M14760 6224 c-14 -2 -68 -11 -120 -20 -519 -87 -939 -452 -1098 -954
-64 -200 -87 -382 -79 -610 11 -318 78 -538 234 -774 238 -360 648 -574 1133
-593 306 -12 560 40 803 164 184 94 328 211 447 364 154 199 250 418 296 674
22 122 30 408 15 532 -42 345 -174 618 -408 843 -179 173 -405 289 -685 351
-74 17 -137 22 -303 24 -115 2 -221 1 -235 -1z m312 -209 c483 -84 844 -467
944 -1000 26 -137 26 -437 0 -580 -84 -465 -347 -800 -721 -918 -248 -78 -540
-57 -781 57 -121 57 -202 113 -298 205 -194 186 -315 418 -373 716 -24 123
-24 432 1 562 97 526 397 871 832 957 93 19 292 19 396 1z"/>
<path d="M12480 6208 c-124 -5 -225 -10 -226 -11 0 -1 -200 -521 -445 -1154
-244 -634 -446 -1153 -449 -1153 -3 1 -248 503 -545 1117 l-540 1116 -140 -7
c-77 -3 -232 -9 -345 -13 -156 -5 -195 -9 -165 -16 113 -25 144 -38 193 -82
61 -55 79 -98 92 -218 6 -51 29 -569 51 -1153 41 -1087 41 -1141 7 -1221 -19
-46 -73 -107 -112 -128 -20 -11 -36 -26 -36 -34 0 -12 35 -13 228 -7 302 9
382 15 382 32 0 7 -10 16 -22 20 -12 3 -45 29 -74 56 -52 49 -73 90 -94 178
-9 42 -94 2079 -87 2087 3 2 352 -710 1070 -2186 66 -135 102 -199 107 -190 4
8 220 563 480 1234 260 671 476 1223 479 1227 10 12 85 -2014 78 -2103 -4 -44
-15 -99 -25 -122 -19 -44 -76 -110 -102 -119 -11 -4 -12 -8 -4 -18 9 -9 78 -9
315 0 167 6 310 13 317 15 20 7 14 25 -12 35 -72 27 -126 111 -146 230 -11 66
-90 2035 -90 2243 0 71 6 132 15 164 18 62 65 127 105 148 17 9 30 22 27 28
-5 16 -22 16 -287 5z"/>
<path d="M17006 6113 c-14 -14 -4 -23 54 -49 116 -52 216 -190 227 -314 5 -60
-170 -2140 -188 -2230 -17 -85 -47 -146 -95 -189 -45 -42 -61 -49 -147 -60
l-52 -7 45 -7 c37 -6 615 -57 642 -57 20 0 5 31 -21 44 -44 23 -100 95 -116
150 -8 27 -15 79 -15 115 -1 36 36 504 82 1038 76 896 84 971 99 955 9 -9 434
-599 944 -1310 511 -710 930 -1291 931 -1289 2 2 55 606 119 1343 70 814 121
1363 130 1399 35 134 91 189 212 209 43 8 65 14 48 15 -16 1 -196 17 -400 35
-203 18 -371 32 -373 31 -1 -1 30 -14 70 -30 125 -49 178 -121 193 -261 4 -39
-21 -371 -74 -994 -45 -514 -83 -939 -84 -944 -2 -6 -129 165 -283 379 -153
214 -538 749 -854 1189 l-576 801 -199 17 c-110 9 -225 19 -256 22 -31 3 -59
3 -63 -1z"/>
<path d="M5151 4508 c-178 -700 -346 -1353 -372 -1451 -58 -212 -108 -327
-173 -392 -55 -54 -58 -70 -13 -62 17 2 163 24 324 48 l292 43 -60 22 c-69 25
-94 45 -119 94 -25 50 -32 115 -21 196 13 86 178 786 189 795 6 6 949 150 979
149 14 0 398 -636 450 -746 65 -136 54 -221 -35 -276 -30 -19 -33 -23 -17 -25
11 -2 175 21 365 50 266 40 345 55 345 66 0 8 -13 19 -30 24 -87 29 -176 110
-264 242 -26 39 -375 616 -776 1283 -401 666 -732 1212 -735 1212 -3 0 -151
-573 -329 -1272z m648 107 c257 -434 277 -471 257 -477 -38 -12 -796 -121
-802 -115 -3 3 51 244 120 536 69 292 126 534 126 538 0 18 36 -41 299 -482z"/>
<path d="M20593 5757 c-4 -6 -1 -13 6 -15 31 -10 80 -66 102 -114 42 -94 37
-155 -124 -1338 -140 -1025 -158 -1136 -197 -1210 -35 -65 -125 -138 -157
-126 -10 4 -13 0 -11 -11 3 -15 47 -24 310 -59 169 -23 319 -44 333 -46 36 -7
55 19 24 31 -32 12 -62 46 -90 101 -47 93 -45 119 115 1310 81 597 154 1110
162 1140 33 113 87 187 159 217 43 17 61 43 31 43 -13 0 -585 75 -634 84 -12
2 -25 -1 -29 -7z"/>
<path d="M2950 5180 l-965 -206 2 -44 c6 -110 24 -360 29 -410 l6 -55 17 60
c47 164 156 271 336 328 88 28 447 99 454 91 4 -5 117 -522 251 -1149 259
-1213 266 -1251 231 -1348 -15 -44 -66 -107 -87 -107 -8 0 -14 -7 -14 -15 0
-8 6 -15 13 -15 12 0 630 128 654 135 7 2 10 11 7 20 -4 9 -13 14 -21 11 -43
-17 -147 76 -188 167 -12 29 -29 81 -38 117 -16 65 -476 2222 -480 2249 -2 12
51 26 223 63 202 44 236 48 330 46 97 -3 111 -6 180 -40 77 -37 111 -64 168
-133 17 -22 32 -36 32 -33 0 10 -159 449 -168 463 -5 8 -277 -46 -972 -195z"/>
<path d="M22865 5374 c-596 -92 -1037 -531 -1164 -1160 -135 -664 114 -1255
662 -1578 161 -95 373 -168 570 -195 175 -24 431 -8 621 40 90 23 250 85 264
102 6 7 17 53 27 102 9 50 19 100 22 112 5 21 -1 20 -78 -21 -171 -91 -358
-136 -563 -136 -488 0 -876 221 -1066 605 -99 200 -134 358 -133 595 1 234 44
447 132 651 204 473 628 739 1099 690 314 -33 568 -163 743 -379 72 -90 104
-144 145 -245 22 -54 34 -73 37 -60 3 10 25 122 48 250 50 271 58 237 -83 334
-290 199 -672 311 -1051 308 -78 -1 -182 -7 -232 -15z"/>
<path d="M25355 3668 c-530 -667 -937 -1170 -990 -1223 -88 -89 -170 -144
-224 -148 -12 -1 -21 -8 -21 -17 0 -11 72 -35 296 -98 163 -46 304 -86 313
-89 9 -3 -5 16 -30 43 -61 64 -69 82 -69 148 0 87 50 168 311 506 129 167 236
307 239 311 6 9 960 -256 971 -269 9 -10 100 -818 99 -882 -1 -126 -45 -192
-142 -212 -31 -7 -56 -13 -55 -15 2 -1 162 -47 357 -102 251 -71 357 -97 362
-88 4 6 -10 29 -32 53 -50 55 -87 127 -111 222 -11 43 -92 689 -189 1496 -93
782 -173 1438 -177 1459 l-8 37 -900 -1132z m655 474 c0 -10 27 -256 60 -546
34 -291 60 -532 58 -536 -3 -7 -793 211 -802 221 -4 5 667 878 677 879 4 0 7
-8 7 -18z"/>
<path d="M850 4690 c-267 -21 -471 -108 -630 -269 -144 -145 -211 -305 -211
-508 0 -275 122 -499 338 -619 141 -79 299 -126 585 -174 393 -67 552 -122
674 -233 90 -82 164 -261 164 -397 0 -186 -128 -383 -302 -465 -114 -54 -186
-69 -323 -68 -147 1 -241 23 -373 88 -74 37 -111 64 -186 135 -51 49 -105 108
-121 130 -15 22 -30 39 -32 37 -2 -3 102 -373 153 -539 11 -38 312 -84 482
-74 362 23 656 157 819 373 116 153 169 321 160 507 -12 243 -112 453 -274
575 -161 121 -294 162 -833 256 -303 53 -428 99 -535 196 -161 148 -185 415
-54 613 112 168 354 254 597 212 188 -33 327 -108 457 -247 37 -41 66 -65 63
-54 -3 11 -35 124 -73 251 l-67 232 -77 16 c-70 15 -129 22 -256 30 -27 1 -93
0 -145 -4z"/>
<path d="M9365 767 c-19 -35 -35 -67 -35 -70 0 -4 19 -7 43 -7 42 0 44 1 80
63 20 35 37 67 37 70 0 4 -20 7 -45 7 -44 0 -44 0 -80 -63z"/>
<path d="M16742 767 c-34 -34 -62 -66 -62 -70 0 -4 22 -7 48 -7 39 0 53 5 72
25 l23 24 29 -24 c23 -19 41 -25 80 -25 l50 0 -62 70 c-81 91 -94 92 -178 7z"/>
<path d="M7128 651 c-58 -12 -113 -54 -139 -108 -22 -45 -24 -60 -24 -213 0
-153 2 -168 24 -213 15 -30 38 -58 64 -75 37 -24 50 -27 131 -27 82 0 96 3
139 28 26 15 47 31 47 35 -1 4 -11 19 -23 34 l-22 28 -49 -25 c-64 -32 -132
-34 -171 -3 -45 35 -55 74 -55 217 0 150 14 202 61 226 40 21 113 19 161 -6
33 -17 42 -18 50 -7 36 54 34 62 -26 88 -51 22 -119 30 -168 21z"/>
<path d="M10006 649 c-83 -20 -126 -78 -126 -172 0 -94 50 -146 168 -177 86
-22 98 -30 113 -80 9 -30 8 -43 -5 -72 -30 -63 -100 -75 -200 -33 -33 13 -61
23 -62 22 -1 -1 -9 -17 -18 -34 l-16 -33 52 -26 c75 -38 187 -45 245 -15 62
31 87 73 91 152 7 110 -38 164 -162 195 -89 22 -121 49 -121 102 0 61 34 92
99 92 29 0 70 -9 93 -20 l43 -19 16 30 c21 42 14 54 -43 72 -67 21 -121 26
-167 16z"/>
<path d="M14668 651 c-59 -12 -113 -54 -139 -108 -20 -41 -24 -67 -27 -179 -6
-196 16 -270 96 -325 31 -21 47 -24 126 -24 82 0 96 3 139 28 26 15 47 31 47
35 -1 4 -11 19 -23 34 l-22 28 -49 -25 c-99 -50 -192 -23 -216 63 -15 56 -13
276 4 316 31 75 121 99 208 55 33 -17 42 -18 50 -7 36 54 34 62 -26 88 -51 22
-119 30 -168 21z"/>
<path d="M18330 651 c-71 -15 -111 -45 -146 -111 -16 -30 -19 -58 -19 -205 0
-159 2 -173 24 -218 15 -30 38 -58 64 -75 36 -24 50 -27 127 -27 72 0 93 4
135 26 28 14 50 30 50 35 0 5 -9 21 -21 36 l-21 27 -48 -25 c-97 -49 -187 -22
-216 64 -7 21 -12 88 -12 157 0 131 20 202 61 224 34 18 119 13 162 -9 l39
-20 21 30 c26 36 20 47 -34 70 -50 22 -119 30 -166 21z"/>
<path d="M7869 623 c-32 -85 -199 -588 -199 -600 0 -11 11 -13 43 -11 l42 3
23 73 23 73 116 -3 116 -3 25 -72 24 -73 45 0 c32 0 44 4 41 13 -3 6 -51 150
-108 320 l-102 307 -39 0 c-34 0 -41 -4 -50 -27z m94 -254 c21 -64 37 -119 37
-123 0 -7 -155 -8 -162 0 -3 3 13 61 35 129 23 69 44 121 48 117 3 -4 22 -59
42 -123z"/>
<path d="M8490 330 l0 -320 45 0 45 0 0 145 0 145 110 0 110 0 0 40 0 40 -110
0 -110 0 0 95 0 95 130 0 130 0 0 40 0 40 -175 0 -175 0 0 -320z"/>
<path d="M9200 330 l0 -320 175 0 175 0 0 45 0 45 -135 0 -136 0 3 97 3 98
118 3 118 3 -3 37 -3 37 -118 3 -118 3 3 92 3 92 133 3 132 3 0 39 0 40 -175
0 -175 0 0 -320z"/>
<path d="M11110 330 l0 -323 133 7 c120 6 136 9 176 34 71 43 93 96 99 240 7
196 -24 290 -113 336 -32 17 -63 21 -167 24 l-128 4 0 -322z m256 220 c44 -28
58 -68 62 -183 6 -150 -2 -193 -43 -234 -32 -32 -36 -33 -109 -33 l-76 0 0
236 0 237 73 -5 c39 -3 82 -11 93 -18z"/>
<path d="M11880 330 l0 -320 180 0 180 0 0 45 0 45 -135 0 -135 0 0 100 0 100
115 0 115 0 0 40 0 40 -115 0 -115 0 0 95 0 95 135 0 135 0 0 40 0 40 -180 0
-180 0 0 -320z"/>
<path d="M13110 330 l0 -320 178 2 177 3 0 40 0 40 -132 3 -133 3 0 99 0 100
115 0 115 0 0 40 0 40 -115 0 -115 0 0 95 0 95 136 0 135 0 -3 38 -3 37 -177
3 -178 2 0 -320z"/>
<path d="M13780 642 c0 -5 36 -73 80 -151 44 -77 81 -144 82 -149 2 -4 -36
-78 -84 -163 -49 -86 -88 -159 -88 -163 0 -4 21 -6 48 -4 l47 3 62 115 c35 63
66 116 70 117 5 2 36 -51 71 -117 l63 -120 51 0 c27 0 48 4 46 8 -1 4 -43 78
-91 164 l-88 157 85 149 c47 82 86 152 86 156 0 3 -22 6 -48 6 l-48 0 -51 -97
c-81 -152 -69 -150 -139 -21 l-60 113 -47 3 c-26 2 -47 -1 -47 -6z"/>
<path d="M15250 330 l0 -320 180 0 180 0 0 45 0 45 -135 0 -135 0 0 100 0 100
115 0 115 0 0 40 0 40 -115 0 -115 0 0 95 0 95 135 0 135 0 0 40 0 40 -180 0
-180 0 0 -320z"/>
<path d="M15975 637 c-3 -7 -4 -149 -3 -317 l3 -305 165 0 165 0 0 40 0 40
-122 3 -123 3 0 274 0 275 -40 0 c-24 0 -43 -5 -45 -13z"/>
<path d="M16650 330 l0 -320 175 0 175 0 0 45 0 45 -135 0 -136 0 3 97 3 98
118 3 118 3 -3 37 -3 37 -118 3 -118 3 3 92 3 92 133 3 132 3 0 39 0 40 -175
0 -175 0 0 -320z"/>
<path d="M17370 330 l0 -320 45 0 45 0 2 226 3 227 124 -227 123 -226 39 0 39
0 0 320 0 320 -40 0 -40 0 0 -227 c-1 -181 -3 -225 -13 -212 -7 9 -64 111
-127 227 l-115 212 -42 0 -43 0 0 -320z"/>
<path d="M18910 330 l0 -321 43 3 42 3 0 315 0 315 -42 3 -43 3 0 -321z"/>
<path d="M19525 633 c-14 -33 -205 -608 -205 -615 0 -5 19 -8 43 -8 l43 0 24
75 24 75 116 0 117 0 22 -75 22 -75 44 0 c25 0 45 4 45 8 0 7 -122 373 -190
570 -22 61 -22 62 -60 62 -27 0 -40 -5 -45 -17z m88 -256 c21 -67 38 -125 37
-129 0 -12 -160 -10 -160 2 0 18 74 250 80 250 3 0 22 -55 43 -123z"/>
</g>
</svg>
