<?xml version="1.0" encoding="UTF-8"?>
<!DOCTYPE svg PUBLIC "-//W3C//DTD SVG 1.1//EN" "http://www.w3.org/Graphics/SVG/1.1/DTD/svg11.dtd">
<svg xmlns="http://www.w3.org/2000/svg" version="1.1" width="1400px" height="1660px" style="shape-rendering:geometricPrecision; text-rendering:geometricPrecision; image-rendering:optimizeQuality; fill-rule:evenodd; clip-rule:evenodd" xmlns:xlink="http://www.w3.org/1999/xlink">
<g><path style="opacity:1" fill="#fefefe" d="M -0.5,-0.5 C 466.167,-0.5 932.833,-0.5 1399.5,-0.5C 1399.5,552.833 1399.5,1106.17 1399.5,1659.5C 932.833,1659.5 466.167,1659.5 -0.5,1659.5C -0.5,1106.17 -0.5,552.833 -0.5,-0.5 Z"/></g>
<g><path style="opacity:1" fill="#191919" d="M 730.5,163.5 C 730.333,208.168 730.5,252.835 731,297.5C 731.363,294.456 731.863,291.456 732.5,288.5C 739.447,231.035 747.281,173.702 756,116.5C 800.427,132.719 837.76,159.052 868,195.5C 905.67,240.088 929.337,291.422 939,349.5C 940.181,359.8 940.681,370.133 940.5,380.5C 961.67,382.504 973.336,394.004 975.5,415C 974.686,423.6 973.353,432.1 971.5,440.5C 774.833,440.5 578.167,440.5 381.5,440.5C 378.902,428.97 378.068,417.304 379,405.5C 384.549,389.794 395.716,381.46 412.5,380.5C 412.734,343.165 420.567,307.498 436,273.5C 461.65,215.681 501.15,169.847 554.5,136C 568.033,128.436 582.033,121.936 596.5,116.5C 597.192,117.025 597.692,117.692 598,118.5C 605.994,174.455 613.494,230.455 620.5,286.5C 621.105,289.127 621.605,291.793 622,294.5C 622.5,258.835 622.667,223.168 622.5,187.5C 622.167,162.48 622.667,137.48 624,112.5C 658.937,75.174 693.937,75.174 729,112.5C 730.316,129.472 730.816,146.472 730.5,163.5 Z"/></g>
<g><path style="opacity:1" fill="#6b6b6b" d="M 669.5,102.5 C 681.838,101.197 692.838,104.364 702.5,112C 706.016,114.52 709.183,117.353 712,120.5C 713.241,205.492 713.908,290.492 714,375.5C 714.282,381.216 714.948,386.883 716,392.5C 721.493,398.571 727.16,398.571 733,392.5C 738.568,366.325 743.235,339.991 747,313.5C 754.074,256.055 761.908,198.722 770.5,141.5C 805.49,158.979 835.323,182.979 860,213.5C 893.765,255.714 914.432,303.714 922,357.5C 922.633,370.513 922.466,383.513 921.5,396.5C 932.431,396.171 942.764,398.337 952.5,403C 954.617,404.731 956.117,406.898 957,409.5C 957.648,414.204 957.481,418.871 956.5,423.5C 769.833,423.5 583.167,423.5 396.5,423.5C 392.604,408.43 398.271,399.93 413.5,398C 419.445,396.838 425.445,396.338 431.5,396.5C 428.65,360.937 433.816,326.604 447,293.5C 471.047,232.905 510.547,185.072 565.5,150C 571.167,147.167 576.833,144.333 582.5,141.5C 590.454,193.349 597.621,245.349 604,297.5C 608.234,326.903 612.901,356.237 618,385.5C 619.17,395.014 624.337,398.514 633.5,396C 634.667,394.833 635.833,393.667 637,392.5C 638.711,384.27 639.711,375.937 640,367.5C 640.167,285.165 640.667,202.831 641.5,120.5C 649.3,111.944 658.634,105.944 669.5,102.5 Z"/></g>
<g><path style="opacity:1" fill="#bababa" d="M 622.5,187.5 C 622.667,223.168 622.5,258.835 622,294.5C 621.605,291.793 621.105,289.127 620.5,286.5C 621.167,253.5 621.833,220.5 622.5,187.5 Z"/></g>
<g><path style="opacity:1" fill="#838383" d="M 730.5,163.5 C 731.167,205.167 731.833,246.833 732.5,288.5C 731.863,291.456 731.363,294.456 731,297.5C 730.5,252.835 730.333,208.168 730.5,163.5 Z"/></g>
<g><path style="opacity:1" fill="#191919" d="M 1143.5,1206.5 C 1090.49,1205.84 1037.82,1206.5 985.5,1208.5C 983.173,1214.33 979.507,1219.16 974.5,1223C 977.225,1232.79 978.892,1242.79 979.5,1253C 978.376,1265.96 971.376,1273.12 958.5,1274.5C 956.833,1274.5 955.167,1274.5 953.5,1274.5C 953.5,1283.83 953.5,1293.17 953.5,1302.5C 944.254,1317.56 930.92,1327.06 913.5,1331C 883.214,1336.58 859.048,1327.08 841,1302.5C 840.831,1294.81 840.331,1287.15 839.5,1279.5C 837.032,1278.2 834.699,1276.7 832.5,1275C 821.312,1273.48 814.146,1267.31 811,1256.5C 810.5,1239.84 810.333,1223.17 810.5,1206.5C 727.5,1206.5 644.5,1206.5 561.5,1206.5C 561.667,1220.5 561.5,1234.5 561,1248.5C 558.484,1260.43 551.151,1267.1 539,1268.5C 539.212,1301.98 523.378,1324.14 491.5,1335C 458.903,1341.62 434.403,1330.45 418,1301.5C 416.202,1297.58 414.702,1293.58 413.5,1289.5C 415.5,1289.17 417.5,1288.83 419.5,1288.5C 420.043,1288.44 420.376,1288.11 420.5,1287.5C 418.257,1286.53 415.924,1286.19 413.5,1286.5C 413.5,1281.83 413.5,1277.17 413.5,1272.5C 413.5,1271.17 413.5,1269.83 413.5,1268.5C 398.857,1267.19 391.524,1259.19 391.5,1244.5C 392.114,1236.81 392.948,1229.15 394,1221.5C 394.833,1219.83 395.667,1218.17 396.5,1216.5C 393.194,1213.86 390.194,1210.86 387.5,1207.5C 327.837,1206.5 268.17,1206.17 208.5,1206.5C 209.782,1143.68 215.949,1081.34 227,1019.5C 233.82,979.853 247.987,943.187 269.5,909.5C 284.346,889.488 302.013,872.321 322.5,858C 315.597,857.205 308.764,856.038 302,854.5C 290.845,870.798 280.179,887.465 270,904.5C 269.184,905.823 268.017,906.489 266.5,906.5C 235.384,887.224 204.384,867.724 173.5,848C 183.875,831.415 194.375,814.915 205,798.5C 205.667,797.167 205.667,795.833 205,794.5C 200.64,788.974 196.474,783.307 192.5,777.5C 191.833,777.167 191.167,776.833 190.5,776.5C 170.978,781.586 151.311,785.919 131.5,789.5C 124.25,753.672 116.25,718.005 107.5,682.5C 127.323,676.878 147.323,671.878 167.5,667.5C 168.672,660.636 170.005,653.802 171.5,647C 155.388,635.572 138.721,624.905 121.5,615C 120.978,614.439 120.645,613.772 120.5,613C 139.592,581.421 159.259,550.254 179.5,519.5C 196.916,530.625 214.416,541.625 232,552.5C 236.696,548.972 241.529,545.638 246.5,542.5C 246.833,541.667 247.167,540.833 247.5,540C 243.413,521.818 239.246,503.651 235,485.5C 234.257,483.559 234.424,481.726 235.5,480C 271.172,471.833 306.839,463.666 342.5,455.5C 346.892,475.846 351.392,496.179 356,516.5C 362.124,517.461 368.291,518.461 374.5,519.5C 375.772,519.43 376.938,519.097 378,518.5C 383.749,508.666 389.749,498.999 396,489.5C 395.89,476.844 395.723,464.178 395.5,451.5C 582.167,451.5 768.833,451.5 955.5,451.5C 955.333,463.171 955.5,474.838 956,486.5C 962.833,497.333 969.667,508.167 976.5,519C 983.829,518.862 990.995,517.695 998,515.5C 1002.21,495.327 1007.04,475.327 1012.5,455.5C 1046.41,463.643 1080.41,471.476 1114.5,479C 1116.63,479.543 1118.63,480.376 1120.5,481.5C 1115.28,501.196 1110.62,521.029 1106.5,541C 1111.55,544.946 1116.71,548.779 1122,552.5C 1139.69,541.09 1157.52,530.256 1175.5,520C 1195.24,550.745 1214.58,581.745 1233.5,613C 1217.29,624.341 1200.63,635.174 1183.5,645.5C 1183.67,652.858 1184.84,660.191 1187,667.5C 1206.7,672.608 1226.54,677.275 1246.5,681.5C 1238.39,717.184 1230.05,752.85 1221.5,788.5C 1218.19,789.349 1214.86,789.182 1211.5,788C 1195.12,784.322 1178.79,780.488 1162.5,776.5C 1158.24,782.679 1153.74,788.679 1149,794.5C 1148.33,795.833 1148.33,797.167 1149,798.5C 1159.62,814.915 1170.12,831.415 1180.5,848C 1149.4,867.632 1118.23,887.132 1087,906.5C 1085.74,906.241 1084.74,905.574 1084,904.5C 1073.83,888.167 1063.67,871.833 1053.5,855.5C 1052.67,855.167 1051.83,854.833 1051,854.5C 1044.57,855.989 1038.07,856.989 1031.5,857.5C 1031.33,858.822 1031.66,859.989 1032.5,861C 1062.26,881.422 1084.76,907.922 1100,940.5C 1118.07,984.43 1129.4,1030.1 1134,1077.5C 1139.03,1120.36 1142.2,1163.36 1143.5,1206.5 Z"/></g>
<g><path style="opacity:1" fill="#fdfdfd" d="M 528.5,1078.5 C 527.833,1076.5 527.167,1074.5 526.5,1072.5C 524.306,1035.51 522.806,998.514 522,961.5C 524.833,957.333 528.333,953.833 532.5,951C 561.666,936.204 577.499,912.371 580,879.5C 582.657,842.759 569.49,813.259 540.5,791C 555.989,785.616 571.656,780.616 587.5,776C 550.124,752.688 516.624,724.521 487,691.5C 443.962,638.701 420.295,578.035 416,509.5C 415.046,496.182 414.546,482.849 414.5,469.5C 588.833,469.5 763.167,469.5 937.5,469.5C 938.41,530.795 925.244,588.795 898,643.5C 875.129,682.672 845.629,716.172 809.5,744C 794.676,754.912 779.676,765.579 764.5,776C 798.417,786.806 832.417,797.306 866.5,807.5C 866.333,821.837 866.5,836.171 867,850.5C 870.487,854.142 873.487,858.142 876,862.5C 876.5,921.499 876.667,980.499 876.5,1039.5C 864.5,1039.5 852.5,1039.5 840.5,1039.5C 840.5,1054.83 840.5,1070.17 840.5,1085.5C 830.201,1084.41 819.867,1084.24 809.5,1085C 801.184,1087.31 795.351,1092.48 792,1100.5C 791.333,1123.17 791.333,1145.83 792,1168.5C 794.511,1178.18 800.678,1183.85 810.5,1185.5C 810.5,1186.5 810.5,1187.5 810.5,1188.5C 727.5,1188.5 644.5,1188.5 561.5,1188.5C 561.18,1185.1 561.513,1181.77 562.5,1178.5C 571.83,1176.34 577.664,1170.67 580,1161.5C 580.667,1138.5 580.667,1115.5 580,1092.5C 577.221,1084.51 571.721,1079.35 563.5,1077C 553.5,1076.33 543.5,1076.33 533.5,1077C 531.753,1077.35 530.086,1077.85 528.5,1078.5 Z"/></g>
<g><path style="opacity:1" fill="#303030" d="M 1024.5,477.5 C 1049.3,482.199 1073.96,487.533 1098.5,493.5C 1095.14,512.286 1091.14,530.953 1086.5,549.5C 1091.21,553.707 1096.55,557.207 1102.5,560C 1107.87,563.69 1112.87,567.857 1117.5,572.5C 1120.73,573.782 1123.73,573.282 1126.5,571C 1140.35,561.654 1154.35,552.487 1168.5,543.5C 1182.28,563.778 1195.44,584.444 1208,605.5C 1208.78,606.944 1208.61,608.277 1207.5,609.5C 1191.91,618.543 1176.74,628.209 1162,638.5C 1166.53,652.699 1169.03,667.366 1169.5,682.5C 1187.82,686.608 1206.15,690.608 1224.5,694.5C 1220.09,719.043 1214.76,743.376 1208.5,767.5C 1207.83,767.833 1207.17,768.167 1206.5,768.5C 1188.96,764.741 1171.46,760.741 1154,756.5C 1148.85,763.466 1144.18,770.799 1140,778.5C 1135.67,783.5 1131.33,788.5 1127,793.5C 1126.33,794.5 1126.33,795.5 1127,796.5C 1135.64,811.095 1144.81,825.429 1154.5,839.5C 1155.64,840.891 1155.64,842.224 1154.5,843.5C 1136.33,854.75 1118.33,866.25 1100.5,878C 1097.46,880.22 1094.13,881.72 1090.5,882.5C 1081.49,866.317 1071.82,850.484 1061.5,835C 1047.06,838.128 1032.39,840.295 1017.5,841.5C 1017.07,844.276 1015.9,846.61 1014,848.5C 986.607,833.359 958.107,820.692 928.5,810.5C 928.5,802.833 928.5,795.167 928.5,787.5C 907.311,787.194 886.144,787.528 865,788.5C 852.514,784.587 840.014,780.754 827.5,777C 824.661,773.655 822.328,769.989 820.5,766C 836.081,755.268 852.081,745.102 868.5,735.5C 868.833,734.833 869.167,734.167 869.5,733.5C 867.837,727.86 866.67,722.193 866,716.5C 909.414,670.674 936.748,616.341 948,553.5C 949.589,541.12 951.422,528.787 953.5,516.5C 959.159,524.337 964.659,532.337 970,540.5C 983.87,536.324 998.037,533.99 1012.5,533.5C 1016.37,514.814 1020.37,496.148 1024.5,477.5 Z"/></g>
<g><path style="opacity:1" fill="#303030" d="M 325.5,477.5 C 326.833,477.5 328.167,477.5 329.5,477.5C 333.501,496.169 337.501,514.836 341.5,533.5C 347.535,533.537 353.535,534.037 359.5,535C 368.187,536.905 376.854,538.571 385.5,540C 389.375,532.412 393.875,525.246 399,518.5C 402.78,556.245 411.946,592.579 426.5,627.5C 394.104,586.323 352.104,573.156 300.5,588C 268.366,601.766 246.866,625.266 236,658.5C 225.114,709.24 240.947,749.074 283.5,778C 336.103,803.811 382.27,795.311 422,752.5C 443.169,721.823 448.835,688.49 439,652.5C 452.667,676.497 469,698.497 488,718.5C 487.012,723.819 486.012,729.153 485,734.5C 501.101,745.132 517.268,755.632 533.5,766C 531.516,769.323 529.516,772.657 527.5,776C 524.833,776.667 522.167,777.333 519.5,778C 512.399,777.582 505.399,776.415 498.5,774.5C 498.5,778.167 498.5,781.833 498.5,785.5C 482.964,789.568 467.631,794.235 452.5,799.5C 452.5,791.167 452.5,782.833 452.5,774.5C 420.116,780.746 396.116,798.246 380.5,827C 366.485,833.192 352.819,840.025 339.5,847.5C 337.544,845.649 336.544,843.316 336.5,840.5C 331.489,840.666 326.489,840.499 321.5,840C 311.725,838.427 302.058,836.76 292.5,835C 282.471,850.215 272.804,865.715 263.5,881.5C 262.635,882.583 261.635,882.749 260.5,882C 240.701,869.262 220.701,856.762 200.5,844.5C 199.713,843.758 199.047,842.925 198.5,842C 208.434,826.254 218.1,810.421 227.5,794.5C 222.509,788.671 217.676,782.671 213,776.5C 209.027,770.05 205.194,763.55 201.5,757C 182.917,760.884 164.25,764.717 145.5,768.5C 140.165,743.828 134.832,719.162 129.5,694.5C 147.84,690.389 166.173,686.389 184.5,682.5C 184.798,667.379 187.464,652.713 192.5,638.5C 177.065,627.788 161.065,618.121 144.5,609.5C 144.351,608.448 144.517,607.448 145,606.5C 151.396,597.099 157.396,587.432 163,577.5C 170.084,566.332 177.417,555.332 185,544.5C 201.234,554.368 217.401,564.368 233.5,574.5C 243.588,564.805 254.921,557.138 267.5,551.5C 263.723,532.824 259.723,514.157 255.5,495.5C 255.833,494.833 256.167,494.167 256.5,493.5C 279.609,488.148 302.609,482.815 325.5,477.5 Z"/></g>
<g><path style="opacity:1" fill="#fdfdfd" d="M 325.5,599.5 C 369.749,596.362 401.249,614.695 420,654.5C 432.68,693.446 424.18,726.946 394.5,755C 366.565,775.71 336.231,780.044 303.5,768C 261.18,746.191 244.347,711.691 253,664.5C 264.554,628.658 288.721,606.991 325.5,599.5 Z"/></g>
<g><path style="opacity:1" fill="#191919" d="M 1002.5,581.5 C 1045.83,578.415 1080,594.415 1105,629.5C 1123.57,660.669 1126.57,693.335 1114,727.5C 1088.38,778.392 1047.22,799.226 990.5,790C 947.31,777.143 921.144,748.643 912,704.5C 906.702,666.485 917.868,634.319 945.5,608C 962.281,594.247 981.281,585.413 1002.5,581.5 Z"/></g>
<g><path style="opacity:1" fill="#fdfdfd" d="M 1003.5,599.5 C 1040.24,596.293 1069.07,609.626 1090,639.5C 1107.22,669.777 1107.88,700.444 1092,731.5C 1070.7,764.064 1040.53,778.23 1001.5,774C 961.109,764.942 936.942,740.109 929,699.5C 925.529,652.341 945.696,620.174 989.5,603C 994.313,601.885 998.98,600.719 1003.5,599.5 Z"/></g>
<g><path style="opacity:1" fill="#555555" d="M 516.5,798.5 C 546.121,812.707 561.455,836.374 562.5,869.5C 562.662,889.988 555.996,907.821 542.5,923C 530.173,929.997 519.006,938.497 509,948.5C 507.08,951.339 505.413,954.339 504,957.5C 504.714,1001.54 506.547,1045.54 509.5,1089.5C 487.169,1088.46 464.836,1087.46 442.5,1086.5C 445.099,1044.19 446.932,1001.85 448,959.5C 445.871,951.425 441.371,944.925 434.5,940C 427.031,935.363 419.698,930.53 412.5,925.5C 396.463,910.573 388.797,892.073 389.5,870C 390.093,838.789 403.76,815.456 430.5,800C 431.793,799.51 433.127,799.343 434.5,799.5C 434.5,829.5 434.5,859.5 434.5,889.5C 461.833,889.5 489.167,889.5 516.5,889.5C 516.5,859.167 516.5,828.833 516.5,798.5 Z"/></g>
<g><path style="opacity:1" fill="#fcfcfc" d="M 498.5,871.5 C 483.5,871.5 468.5,871.5 453.5,871.5C 453.5,853.833 453.5,836.167 453.5,818.5C 468.285,813.405 483.118,808.405 498,803.5C 498.5,826.164 498.667,848.831 498.5,871.5 Z"/></g>
<g><path style="opacity:1" fill="#555555" d="M 884.5,805.5 C 893.167,805.5 901.833,805.5 910.5,805.5C 910.667,818.504 910.5,831.504 910,844.5C 905.277,849.231 902.277,854.898 901,861.5C 900.5,916.499 900.333,971.499 900.5,1026.5C 898.5,1026.5 896.5,1026.5 894.5,1026.5C 894.667,971.166 894.5,915.832 894,860.5C 892.303,854.104 889.303,848.438 885,843.5C 884.5,830.838 884.333,818.171 884.5,805.5 Z"/></g>
<g><path style="opacity:1" fill="#fdfdfd" d="M 991.5,1147.5 C 992.783,1140.12 992.449,1132.78 990.5,1125.5C 992.335,1107.64 984.668,1096.47 967.5,1092C 960.817,1091.69 954.15,1091.69 947.5,1092C 949.459,1091.07 951.459,1090.24 953.5,1089.5C 954.499,1073.18 954.833,1056.85 954.5,1040.5C 943.012,1039.51 931.345,1039.17 919.5,1039.5C 919.832,982.664 919.499,925.998 918.5,869.5C 918.837,862.158 921.837,856.158 927.5,851.5C 928.167,844.167 928.833,836.833 929.5,829.5C 962.901,841.034 994.234,856.534 1023.5,876C 1058.2,901.499 1082.04,934.999 1095,976.5C 1101.27,996.516 1106.27,1016.85 1110,1037.5C 1117.61,1087.56 1122.44,1137.89 1124.5,1188.5C 1078.17,1188.5 1031.83,1188.5 985.5,1188.5C 985.781,1180.06 984.114,1172.06 980.5,1164.5C 986.432,1160.3 990.099,1154.64 991.5,1147.5 Z"/></g>
<g><path style="opacity:1" fill="#fdfdfd" d="M 384.5,1188.5 C 332.167,1188.5 279.833,1188.5 227.5,1188.5C 227.5,1185.5 227.5,1182.5 227.5,1179.5C 229.887,1133.63 234.387,1087.96 241,1042.5C 245.936,1010.75 254.603,980.086 267,950.5C 282.331,917.504 305.165,891.004 335.5,871C 347.511,863.659 359.845,856.826 372.5,850.5C 367.303,878.809 373.136,904.809 390,928.5C 398.74,938.247 408.907,946.081 420.5,952C 424.7,954.567 427.867,958.067 430,962.5C 428.633,1003.17 426.8,1043.83 424.5,1084.5C 419.161,1084.31 413.828,1083.98 408.5,1083.5C 391.863,1084.3 382.363,1092.97 380,1109.5C 378.8,1118.82 378.134,1128.16 378,1137.5C 379.332,1145.49 383.165,1151.99 389.5,1157C 385.761,1167.14 384.094,1177.64 384.5,1188.5 Z"/></g>
<g><path style="opacity:1" fill="#616161" d="M 453.5,818.5 C 453.5,836.167 453.5,853.833 453.5,871.5C 468.5,871.5 483.5,871.5 498.5,871.5C 483.342,872.496 468.009,872.83 452.5,872.5C 452.17,854.326 452.503,836.326 453.5,818.5 Z"/></g>
<g><path style="opacity:1" fill="#f2f2f2" d="M 269.5,909.5 C 268.9,908.1 267.9,907.1 266.5,906.5C 268.017,906.489 269.184,905.823 270,904.5C 280.179,887.465 290.845,870.798 302,854.5C 308.764,856.038 315.597,857.205 322.5,858C 302.013,872.321 284.346,889.488 269.5,909.5 Z"/></g>
<g><path style="opacity:1" fill="#888888" d="M 918.5,869.5 C 919.499,925.998 919.832,982.664 919.5,1039.5C 931.345,1039.17 943.012,1039.51 954.5,1040.5C 942.5,1040.5 930.5,1040.5 918.5,1040.5C 918.5,983.5 918.5,926.5 918.5,869.5 Z"/></g>
<g><path style="opacity:1" fill="#545454" d="M 858.5,1057.5 C 884.5,1057.5 910.5,1057.5 936.5,1057.5C 936.666,1064.17 936.5,1070.84 936,1077.5C 929.268,1081.38 925.101,1087.05 923.5,1094.5C 906.114,1094.84 888.78,1095.84 871.5,1097.5C 871.161,1088.5 866.994,1081.83 859,1077.5C 858.5,1070.84 858.334,1064.17 858.5,1057.5 Z"/></g>
<g><path style="opacity:1" fill="#828282" d="M 526.5,1072.5 C 527.167,1074.5 527.833,1076.5 528.5,1078.5C 528.44,1079.04 528.107,1079.38 527.5,1079.5C 526.526,1077.26 526.192,1074.92 526.5,1072.5 Z"/></g>
<g><path style="opacity:1" fill="#fcfcfc" d="M 535.5,1094.5 C 543.84,1094.33 552.173,1094.5 560.5,1095C 561,1095.5 561.5,1096 562,1096.5C 562.667,1117.17 562.667,1137.83 562,1158.5C 561.5,1159 561,1159.5 560.5,1160C 552.167,1160.67 543.833,1160.67 535.5,1160C 535,1159.5 534.5,1159 534,1158.5C 533.333,1137.83 533.333,1117.17 534,1096.5C 534.717,1095.96 535.217,1095.29 535.5,1094.5 Z"/></g>
<g><path style="opacity:1" fill="#fbfbfb" d="M 403.5,1101.5 C 440.82,1104.01 478.153,1106.34 515.5,1108.5C 515.5,1121.83 515.5,1135.17 515.5,1148.5C 476.753,1146.8 438.087,1144.3 399.5,1141C 396.833,1139 395.5,1136.33 395.5,1133C 396.749,1124.17 397.916,1115.34 399,1106.5C 400.193,1104.5 401.693,1102.84 403.5,1101.5 Z"/></g>
<g><path style="opacity:1" fill="#fcfcfc" d="M 811.5,1102.5 C 819.507,1102.33 827.507,1102.5 835.5,1103C 836.667,1103.5 837.5,1104.33 838,1105.5C 838.667,1125.5 838.667,1145.5 838,1165.5C 837.5,1166 837,1166.5 836.5,1167C 827.588,1167.82 818.755,1167.65 810,1166.5C 809.333,1145.83 809.333,1125.17 810,1104.5C 810.717,1103.96 811.217,1103.29 811.5,1102.5 Z"/></g>
<g><path style="opacity:1" fill="#fbfbfb" d="M 865.5,1155.5 C 862.5,1155.5 859.5,1155.5 856.5,1155.5C 856.5,1142.5 856.5,1129.5 856.5,1116.5C 891.358,1114.38 926.358,1112.05 961.5,1109.5C 966.429,1109.05 969.929,1111.05 972,1115.5C 972.668,1124.52 973.501,1133.52 974.5,1142.5C 974.594,1144.91 973.594,1146.74 971.5,1148C 967.251,1149.13 962.918,1149.79 958.5,1150C 927.485,1151.67 896.485,1153.51 865.5,1155.5 Z"/></g>
<g><path style="opacity:1" fill="#414141" d="M 856.5,1116.5 C 856.5,1129.5 856.5,1142.5 856.5,1155.5C 859.5,1155.5 862.5,1155.5 865.5,1155.5C 862.375,1156.48 859.042,1156.81 855.5,1156.5C 855.171,1142.99 855.504,1129.66 856.5,1116.5 Z"/></g>
<g><path style="opacity:1" fill="#4e4e4e" d="M 990.5,1125.5 C 992.449,1132.78 992.783,1140.12 991.5,1147.5C 991.371,1140.16 991.038,1132.82 990.5,1125.5 Z"/></g>
<g><path style="opacity:1" fill="#fbfbfb" d="M 408.5,1163.5 C 445.163,1165.64 481.83,1167.81 518.5,1170C 522.333,1172.5 526.167,1175 530,1177.5C 529.998,1186.19 529.331,1194.86 528,1203.5C 526.13,1206.02 523.63,1207.35 520.5,1207.5C 482.16,1205.15 443.827,1202.65 405.5,1200C 402.183,1198.2 400.85,1195.36 401.5,1191.5C 402.297,1183.83 403.13,1176.16 404,1168.5C 405.059,1166.34 406.559,1164.67 408.5,1163.5 Z"/></g>
<g><path style="opacity:1" fill="#fbfbfb" d="M 954.5,1170.5 C 959.509,1169.77 963.342,1171.44 966,1175.5C 967.744,1185.11 968.41,1194.78 968,1204.5C 967.097,1205.7 965.931,1206.53 964.5,1207C 925.18,1209.59 885.846,1211.59 846.5,1213C 845.667,1212.17 844.833,1211.33 844,1210.5C 842.23,1201.92 841.563,1193.26 842,1184.5C 845.567,1182.96 848.733,1180.8 851.5,1178C 885.964,1175.2 920.297,1172.7 954.5,1170.5 Z"/></g>
<g><path style="opacity:1" fill="#636363" d="M 227.5,1179.5 C 227.5,1182.5 227.5,1185.5 227.5,1188.5C 279.833,1188.5 332.167,1188.5 384.5,1188.5C 332.003,1189.5 279.336,1189.83 226.5,1189.5C 226.187,1185.96 226.521,1182.62 227.5,1179.5 Z"/></g>
<g><path style="opacity:1" fill="#b0b0b0" d="M 1143.5,1206.5 C 1090.93,1207.17 1038.26,1207.84 985.5,1208.5C 1037.82,1206.5 1090.49,1205.84 1143.5,1206.5 Z"/></g>
<g><path style="opacity:1" fill="#e4e4e4" d="M 542.5,1213.5 C 543.573,1214.25 543.74,1215.25 543,1216.5C 541.272,1215.65 541.105,1214.65 542.5,1213.5 Z"/></g>
<g><path style="opacity:1" fill="#d0d0d0" d="M 828.5,1220.5 C 830.76,1221.24 830.927,1222.24 829,1223.5C 828.517,1222.55 828.351,1221.55 828.5,1220.5 Z"/></g>
<g><path style="opacity:1" fill="#fafafa" d="M 413.5,1222.5 C 452.534,1223.87 491.534,1225.87 530.5,1228.5C 530.655,1237.28 529.822,1245.94 528,1254.5C 525.072,1256.04 521.906,1256.7 518.5,1256.5C 482.483,1254.5 446.483,1252.33 410.5,1250C 409.7,1241.51 410.2,1233.01 412,1224.5C 412.717,1223.96 413.217,1223.29 413.5,1222.5 Z"/></g>
<g><path style="opacity:1" fill="#fbfbfb" d="M 935.5,1229.5 C 942.508,1229.33 949.508,1229.5 956.5,1230C 957,1230.5 957.5,1231 958,1231.5C 960.096,1239.36 961.096,1247.36 961,1255.5C 959.933,1256.19 958.766,1256.69 957.5,1257C 919.83,1258.97 882.164,1260.63 844.5,1262C 843.874,1261.25 843.374,1260.42 843,1259.5C 842.396,1252.3 841.563,1245.13 840.5,1238C 840.759,1236.74 841.426,1235.74 842.5,1235C 873.695,1233.79 904.695,1231.96 935.5,1229.5 Z"/></g>
<g><path style="opacity:1" fill="#f8f8f8" d="M 455.5,1271.5 C 468.843,1271.53 482.176,1271.86 495.5,1272.5C 495.671,1286.5 488.837,1294.5 475,1296.5C 460.843,1294.2 454.343,1285.87 455.5,1271.5 Z"/></g>
<g><path style="opacity:1" fill="#404040" d="M 958.5,1274.5 C 957.432,1275.43 956.099,1275.77 954.5,1275.5C 954.827,1284.68 954.493,1293.68 953.5,1302.5C 953.5,1293.17 953.5,1283.83 953.5,1274.5C 955.167,1274.5 956.833,1274.5 958.5,1274.5 Z"/></g>
<g><path style="opacity:1" fill="#535353" d="M 931.5,1276.5 C 933.167,1276.5 934.833,1276.5 936.5,1276.5C 936.666,1283.17 936.5,1289.84 936,1296.5C 921.072,1313.48 902.572,1318.65 880.5,1312C 871.967,1308.66 864.8,1303.49 859,1296.5C 858.501,1290.84 858.334,1285.18 858.5,1279.5C 860.167,1279.5 861.833,1279.5 863.5,1279.5C 862.756,1297.27 870.756,1303.44 887.5,1298C 893.486,1292.88 895.819,1286.38 894.5,1278.5C 896.5,1278.5 898.5,1278.5 900.5,1278.5C 898.604,1291.07 903.771,1298.4 916,1300.5C 922.11,1300.4 926.776,1297.73 930,1292.5C 931.271,1287.25 931.771,1281.91 931.5,1276.5 Z"/></g>
<g><path style="opacity:1" fill="#666666" d="M 413.5,1272.5 C 413.5,1277.17 413.5,1281.83 413.5,1286.5C 415.924,1286.19 418.257,1286.53 420.5,1287.5C 420.376,1288.11 420.043,1288.44 419.5,1288.5C 417.393,1287.53 415.059,1287.2 412.5,1287.5C 412.179,1282.31 412.513,1277.31 413.5,1272.5 Z"/></g>
<g><path style="opacity:1" fill="#515151" d="M 431.5,1269.5 C 433.5,1269.5 435.5,1269.5 437.5,1269.5C 435.267,1289.54 443.267,1303.71 461.5,1312C 487.867,1318.07 505.034,1308.24 513,1282.5C 513.497,1279.85 513.664,1277.19 513.5,1274.5C 515.833,1274.5 518.167,1274.5 520.5,1274.5C 521.111,1280.43 520.278,1286.1 518,1291.5C 504.17,1315.33 484.004,1323.5 457.5,1316C 438.304,1306.32 429.637,1290.82 431.5,1269.5 Z"/></g>
<g><path style="opacity:1" fill="#181818" d="M 118.5,1343.5 C 193.501,1343.33 268.501,1343.5 343.5,1344C 360.067,1344.72 375.733,1348.72 390.5,1356C 409.39,1370.37 414.89,1388.87 407,1411.5C 403.273,1419.12 398.439,1425.96 392.5,1432C 386.5,1436.67 380.5,1441.33 374.5,1446C 361.14,1453.68 347.473,1460.85 333.5,1467.5C 357.102,1505.51 349.102,1534.68 309.5,1555C 285.74,1564.52 261.074,1570.18 235.5,1572C 196.835,1572.5 158.168,1572.67 119.5,1572.5C 140.097,1517.05 161.097,1461.71 182.5,1406.5C 203.826,1405.33 225.159,1405.17 246.5,1406C 228.371,1452.43 210.371,1498.93 192.5,1545.5C 214.964,1547.11 236.964,1544.61 258.5,1538C 268.428,1534.96 276.261,1529.12 282,1520.5C 284.895,1513.3 285.228,1505.97 283,1498.5C 279.081,1492.33 275.414,1486 272,1479.5C 271.333,1476.83 271.333,1474.17 272,1471.5C 274.802,1468.33 277.969,1465.5 281.5,1463C 295.931,1456.95 309.597,1449.62 322.5,1441C 334.982,1431.54 340.482,1419.04 339,1403.5C 334.221,1392.35 325.721,1386.52 313.5,1386C 239.85,1384.86 166.184,1384.03 92.5,1383.5C 100.799,1369.88 109.466,1356.55 118.5,1343.5 Z"/></g>
<g><path style="opacity:1" fill="#1c1c1c" d="M 1107.5,1362.5 C 1118.93,1362.43 1124.43,1368.1 1124,1379.5C 1119.85,1387.99 1113.35,1390.49 1104.5,1387C 1095.77,1377.64 1096.77,1369.47 1107.5,1362.5 Z"/></g>
<g><path style="opacity:1" fill="#1d1d1d" d="M 992.5,1377.5 C 996.182,1377.33 999.848,1377.5 1003.5,1378C 1005.9,1381.97 1007.9,1386.14 1009.5,1390.5C 1003.71,1392.95 999.71,1391.29 997.5,1385.5C 995.167,1387.33 992.833,1389.17 990.5,1391C 987.833,1391.67 985.167,1391.67 982.5,1391C 986.436,1386.9 989.77,1382.4 992.5,1377.5 Z"/></g>
<g><path style="opacity:1" fill="#1a1a1a" d="M 459.5,1425.5 C 473.339,1426.17 487.339,1426.83 501.5,1427.5C 501.137,1428.18 500.804,1428.85 500.5,1429.5C 499.106,1431.71 497.106,1433.21 494.5,1434C 477.5,1434.67 460.5,1434.67 443.5,1434C 427.745,1428.64 424.245,1418.81 433,1404.5C 438.858,1398.45 445.358,1393.45 452.5,1389.5C 447.466,1372.35 453.799,1362.18 471.5,1359C 480.576,1358.09 489.576,1358.42 498.5,1360C 504.615,1364.96 506.115,1371.13 503,1378.5C 495.667,1386.5 488.333,1386.5 481,1378.5C 479.763,1374.94 479.263,1371.27 479.5,1367.5C 475.046,1366.62 471.546,1367.95 469,1371.5C 468.826,1378.29 469.493,1384.95 471,1391.5C 465.937,1395.95 460.437,1399.78 454.5,1403C 448.957,1409.32 448.29,1415.99 452.5,1423C 454.65,1424.41 456.984,1425.24 459.5,1425.5 Z"/></g>
<g><path style="opacity:1" fill="#505050" d="M 1205.5,1398.5 C 1216.01,1397.18 1226.67,1397.18 1237.5,1398.5C 1237.38,1399.11 1237.04,1399.44 1236.5,1399.5C 1226.35,1398.51 1216.01,1398.17 1205.5,1398.5 Z"/></g>
<g><path style="opacity:1" fill="#1a1a1a" d="M 659.5,1397.5 C 667.719,1397.85 675.719,1398.85 683.5,1400.5C 681.027,1408.72 679.027,1417.06 677.5,1425.5C 683.537,1425.83 689.537,1425.5 695.5,1424.5C 692.793,1412.41 697.126,1403.91 708.5,1399C 731.447,1397.54 754.447,1397.04 777.5,1397.5C 776.201,1403.54 775.034,1409.54 774,1415.5C 780.283,1408.21 787.449,1402.04 795.5,1397C 799.244,1396.07 802.744,1396.57 806,1398.5C 806.119,1403.67 805.452,1408.67 804,1413.5C 808.865,1408.3 814.032,1403.47 819.5,1399C 824.006,1396.19 828.673,1395.85 833.5,1398C 834.602,1400.4 834.769,1402.9 834,1405.5C 832.007,1411.81 830.174,1418.14 828.5,1424.5C 827.957,1424.56 827.624,1424.89 827.5,1425.5C 833.988,1426.17 840.321,1426.83 846.5,1427.5C 846.061,1431.11 844.061,1433.27 840.5,1434C 831.833,1434.67 823.167,1434.67 814.5,1434C 812.129,1432.26 810.795,1429.92 810.5,1427C 811.753,1423.17 812.586,1419.33 813,1415.5C 807.167,1421 801.333,1426.5 795.5,1432C 791.264,1435.65 786.764,1436.15 782,1433.5C 781.833,1432 781.667,1430.5 781.5,1429C 782.297,1423.97 783.464,1419.14 785,1414.5C 778.469,1421.37 771.636,1427.87 764.5,1434C 759.798,1434.83 755.131,1434.66 750.5,1433.5C 752.859,1424.73 755.526,1416.06 758.5,1407.5C 751.524,1406.34 744.524,1406.17 737.5,1407C 742.788,1421.08 738.121,1430.41 723.5,1435C 713.191,1437.34 704.357,1434.84 697,1427.5C 695.413,1430.76 692.913,1432.92 689.5,1434C 680.833,1434.67 672.167,1434.67 663.5,1434C 661.556,1432.28 660.556,1430.11 660.5,1427.5C 662.014,1420.45 663.68,1413.45 665.5,1406.5C 662.482,1406.34 659.482,1406.5 656.5,1407C 653.774,1413.63 650.44,1419.79 646.5,1425.5C 644.219,1425.92 642.552,1425.26 641.5,1423.5C 642.867,1417.9 644.533,1412.4 646.5,1407C 640.823,1403.36 638.99,1398.2 641,1391.5C 646.75,1385.13 653.917,1382.79 662.5,1384.5C 661.656,1388.87 660.656,1393.21 659.5,1397.5 Z"/></g>
<g><path style="opacity:1" fill="#4f4f4f" d="M 659.5,1397.5 C 667.833,1397.5 676.167,1397.5 684.5,1397.5C 684.737,1398.79 684.404,1399.79 683.5,1400.5C 675.719,1398.85 667.719,1397.85 659.5,1397.5 Z"/></g>
<g><path style="opacity:1" fill="#1a1a1a" d="M 888.5,1417.5 C 883.305,1417.82 878.305,1417.49 873.5,1416.5C 874.547,1413.4 875.88,1410.4 877.5,1407.5C 874.232,1406.51 870.898,1406.18 867.5,1406.5C 866.327,1411.52 864.994,1416.52 863.5,1421.5C 863.848,1423.85 865.182,1425.18 867.5,1425.5C 880.323,1426.5 893.323,1426.83 906.5,1426.5C 905.752,1430.42 903.418,1432.92 899.5,1434C 886.167,1434.67 872.833,1434.67 859.5,1434C 854.748,1433.13 850.748,1430.96 847.5,1427.5C 847.737,1426.21 847.404,1425.21 846.5,1424.5C 843.667,1410.35 849.334,1401.52 863.5,1398C 872.468,1396.7 881.135,1397.7 889.5,1401C 894.216,1405.69 894.716,1410.86 891,1416.5C 890.329,1417.25 889.496,1417.59 888.5,1417.5 Z"/></g>
<g><path style="opacity:1" fill="#1b1b1b" d="M 1073.5,1425.5 C 1076.48,1426.16 1079.65,1426.5 1083,1426.5C 1086.58,1426.48 1089.74,1425.82 1092.5,1424.5C 1094.52,1415.76 1096.85,1407.09 1099.5,1398.5C 1105.13,1397.5 1110.79,1397.17 1116.5,1397.5C 1114.17,1406.83 1111.83,1416.17 1109.5,1425.5C 1115.83,1425.5 1122.17,1425.5 1128.5,1425.5C 1129.17,1425.5 1129.5,1425.83 1129.5,1426.5C 1127.95,1427.91 1126.61,1429.58 1125.5,1431.5C 1124.09,1432.81 1122.42,1433.64 1120.5,1434C 1111.83,1434.67 1103.17,1434.67 1094.5,1434C 1093.33,1432.83 1092.17,1431.67 1091,1430.5C 1089.17,1431.67 1087.33,1432.83 1085.5,1434C 1076.17,1434.67 1066.83,1434.67 1057.5,1434C 1056.02,1432.7 1055.35,1431.03 1055.5,1429C 1056.44,1424.44 1057.27,1419.94 1058,1415.5C 1051.69,1422.82 1044.53,1428.99 1036.5,1434C 1032.85,1434.5 1029.18,1434.67 1025.5,1434.5C 1025.65,1433.45 1025.48,1432.45 1025,1431.5C 1023.58,1432.46 1022.08,1433.29 1020.5,1434C 1011.5,1434.67 1002.5,1434.67 993.5,1434C 991.277,1433.35 990.11,1431.85 990,1429.5C 984.531,1435.41 978.031,1436.91 970.5,1434C 968.622,1432.46 967.122,1430.62 966,1428.5C 964.127,1430.71 961.96,1432.54 959.5,1434C 945.833,1434.67 932.167,1434.67 918.5,1434C 913.663,1432.75 909.663,1430.25 906.5,1426.5C 893.323,1426.83 880.323,1426.5 867.5,1425.5C 880.517,1425.83 893.517,1425.5 906.5,1424.5C 904.226,1410.24 910.226,1401.41 924.5,1398C 931.5,1397.33 938.5,1397.33 945.5,1398C 951.657,1400.51 953.824,1405.01 952,1411.5C 946.465,1420.22 940.465,1420.55 934,1412.5C 933.505,1410.53 933.338,1408.53 933.5,1406.5C 930.921,1406.08 928.754,1406.75 927,1408.5C 925.213,1412.31 924.046,1416.31 923.5,1420.5C 923.39,1422.37 924.056,1423.87 925.5,1425C 938.496,1425.5 951.496,1425.67 964.5,1425.5C 963.26,1410.93 969.594,1401.93 983.5,1398.5C 994.221,1397.86 1004.55,1398.52 1014.5,1400.5C 1012.29,1408.45 1010.29,1416.45 1008.5,1424.5C 1007.96,1424.56 1007.62,1424.89 1007.5,1425.5C 1014.32,1426.82 1020.99,1426.82 1027.5,1425.5C 1029.53,1416.73 1031.86,1408.06 1034.5,1399.5C 1040.07,1398.55 1045.74,1398.21 1051.5,1398.5C 1050,1404.17 1048.83,1409.84 1048,1415.5C 1053.86,1409.3 1060.03,1403.47 1066.5,1398C 1070.88,1395.91 1075.04,1396.08 1079,1398.5C 1079.67,1400.5 1079.67,1402.5 1079,1404.5C 1077.06,1411.49 1075.22,1418.49 1073.5,1425.5 Z"/></g>
<g><path style="opacity:1" fill="#4c4c4c" d="M 1051.5,1398.5 C 1045.74,1398.21 1040.07,1398.55 1034.5,1399.5C 1036.92,1398.19 1039.75,1397.52 1043,1397.5C 1046.02,1397.5 1048.85,1397.84 1051.5,1398.5 Z"/></g>
<g><path style="opacity:1" fill="#4e4e4e" d="M 983.5,1398.5 C 993.987,1397.51 1004.65,1397.17 1015.5,1397.5C 1015.74,1398.79 1015.4,1399.79 1014.5,1400.5C 1004.55,1398.52 994.221,1397.86 983.5,1398.5 Z"/></g>
<g><path style="opacity:1" fill="#1b1b1b" d="M 519.5,1424.5 C 518.957,1424.56 518.624,1424.89 518.5,1425.5C 525.167,1426.83 531.833,1426.83 538.5,1425.5C 538.376,1424.89 538.043,1424.56 537.5,1424.5C 535.267,1410.21 541.267,1401.38 555.5,1398C 565.01,1396.48 574.01,1397.82 582.5,1402C 586.828,1407.85 586.161,1413.02 580.5,1417.5C 575.305,1417.82 570.305,1417.49 565.5,1416.5C 566.5,1413.17 567.5,1409.83 568.5,1406.5C 565.428,1406.18 562.428,1406.52 559.5,1407.5C 557.662,1411.85 556.328,1416.35 555.5,1421C 555.439,1422.71 556.106,1424.04 557.5,1425C 571.163,1425.5 584.829,1425.67 598.5,1425.5C 599.834,1419.17 601.167,1412.83 602.5,1406.5C 600.5,1406.5 598.5,1406.5 596.5,1406.5C 597.167,1403.5 597.833,1400.5 598.5,1397.5C 609.24,1394.43 615.907,1387.43 618.5,1376.5C 621.833,1376.5 625.167,1376.5 628.5,1376.5C 626.363,1383.38 624.696,1390.38 623.5,1397.5C 627.226,1397.18 630.893,1397.51 634.5,1398.5C 631.814,1404.51 627.147,1407.51 620.5,1407.5C 618.207,1413.34 616.54,1419.34 615.5,1425.5C 623.65,1426.49 631.983,1426.83 640.5,1426.5C 639.752,1430.42 637.418,1432.92 633.5,1434C 622.5,1434.67 611.5,1434.67 600.5,1434C 598.951,1432.79 597.785,1431.29 597,1429.5C 595.457,1431.38 593.624,1432.88 591.5,1434C 577.833,1434.67 564.167,1434.67 550.5,1434C 546.131,1432.73 542.297,1430.57 539,1427.5C 537.437,1430.73 534.937,1432.9 531.5,1434C 522.5,1434.67 513.5,1434.67 504.5,1434C 503.619,1433.29 502.953,1432.46 502.5,1431.5C 502.5,1429.5 502.5,1427.5 502.5,1425.5C 507.017,1407.43 511.851,1389.43 517,1371.5C 519.724,1370.22 522.724,1369.56 526,1369.5C 528.833,1369.83 531.667,1370.17 534.5,1370.5C 529.091,1388.39 524.091,1406.39 519.5,1424.5 Z"/></g>
<g><path style="opacity:1" fill="#f5f5f5" d="M 715.5,1406.5 C 718.833,1406.5 722.167,1406.5 725.5,1406.5C 723.826,1412.86 721.993,1419.19 720,1425.5C 717.599,1426.6 715.099,1426.77 712.5,1426C 711.106,1425.04 710.439,1423.71 710.5,1422C 711.633,1416.62 713.3,1411.46 715.5,1406.5 Z"/></g>
<g><path style="opacity:1" fill="#f3f3f3" d="M 985.5,1406.5 C 988.833,1406.5 992.167,1406.5 995.5,1406.5C 994.312,1412.23 992.812,1417.9 991,1423.5C 986.542,1426.66 983.708,1425.5 982.5,1420C 983.898,1415.58 984.898,1411.08 985.5,1406.5 Z"/></g>
<g><path style="opacity:1" fill="#1a1a1a" d="M 1149.5,1425.5 C 1161.99,1426.5 1174.66,1426.83 1187.5,1426.5C 1187.5,1422.5 1187.5,1418.5 1187.5,1414.5C 1190.03,1405.3 1196.03,1399.97 1205.5,1398.5C 1216.01,1398.17 1226.35,1398.51 1236.5,1399.5C 1234.5,1407.49 1232.5,1415.49 1230.5,1423.5C 1229.6,1424.21 1229.26,1425.21 1229.5,1426.5C 1236.02,1426.18 1242.36,1426.51 1248.5,1427.5C 1247.32,1430.85 1244.98,1433.02 1241.5,1434C 1232.83,1434.67 1224.17,1434.67 1215.5,1434C 1213.7,1433.36 1212.36,1432.2 1211.5,1430.5C 1205.91,1435.59 1199.58,1436.76 1192.5,1434C 1190.62,1432.46 1189.12,1430.62 1188,1428.5C 1186.13,1430.71 1183.96,1432.54 1181.5,1434C 1168.17,1434.67 1154.83,1434.67 1141.5,1434C 1136.26,1433.23 1132.26,1430.73 1129.5,1426.5C 1129.5,1425.83 1129.17,1425.5 1128.5,1425.5C 1125.83,1410.31 1132.17,1401.14 1147.5,1398C 1154.17,1397.33 1160.83,1397.33 1167.5,1398C 1174.48,1401.21 1176.31,1406.38 1173,1413.5C 1166.92,1420.28 1161.25,1419.95 1156,1412.5C 1155.5,1410.53 1155.34,1408.53 1155.5,1406.5C 1153.47,1406.34 1151.47,1406.5 1149.5,1407C 1146.82,1412.2 1145.66,1417.7 1146,1423.5C 1146.82,1424.82 1147.98,1425.49 1149.5,1425.5 Z"/></g>
<g><path style="opacity:1" fill="#f4f4f4" d="M 1207.5,1406.5 C 1210.83,1406.5 1214.17,1406.5 1217.5,1406.5C 1216.31,1412.23 1214.81,1417.9 1213,1423.5C 1208.54,1426.66 1205.71,1425.5 1204.5,1420C 1205.9,1415.58 1206.9,1411.08 1207.5,1406.5 Z"/></g>
<g><path style="opacity:1" fill="#4f4f4f" d="M 565.5,1416.5 C 570.305,1417.49 575.305,1417.82 580.5,1417.5C 575.32,1418.81 569.986,1418.81 564.5,1417.5C 564.624,1416.89 564.957,1416.56 565.5,1416.5 Z"/></g>
<g><path style="opacity:1" fill="#565656" d="M 873.5,1416.5 C 878.305,1417.49 883.305,1417.82 888.5,1417.5C 883.32,1418.81 877.986,1418.81 872.5,1417.5C 872.624,1416.89 872.957,1416.56 873.5,1416.5 Z"/></g>
<g><path style="opacity:1" fill="#555555" d="M 459.5,1425.5 C 473.833,1425.5 488.167,1425.5 502.5,1425.5C 502.5,1427.5 502.5,1429.5 502.5,1431.5C 501.833,1430.83 501.167,1430.17 500.5,1429.5C 500.804,1428.85 501.137,1428.18 501.5,1427.5C 487.339,1426.83 473.339,1426.17 459.5,1425.5 Z"/></g>
<g><path style="opacity:1" fill="#5a5a5a" d="M 519.5,1424.5 C 525.5,1425.83 531.5,1425.83 537.5,1424.5C 538.043,1424.56 538.376,1424.89 538.5,1425.5C 531.833,1426.83 525.167,1426.83 518.5,1425.5C 518.624,1424.89 518.957,1424.56 519.5,1424.5 Z"/></g>
<g><path style="opacity:1" fill="#5d5d5d" d="M 641.5,1423.5 C 642.552,1425.26 644.219,1425.92 646.5,1425.5C 644.735,1426.46 642.735,1426.79 640.5,1426.5C 631.983,1426.83 623.65,1426.49 615.5,1425.5C 624.434,1426.09 633.101,1425.42 641.5,1423.5 Z"/></g>
<g><path style="opacity:1" fill="#575757" d="M 828.5,1424.5 C 834.5,1425.83 840.5,1425.83 846.5,1424.5C 847.404,1425.21 847.737,1426.21 847.5,1427.5C 847.167,1427.5 846.833,1427.5 846.5,1427.5C 840.321,1426.83 833.988,1426.17 827.5,1425.5C 827.624,1424.89 827.957,1424.56 828.5,1424.5 Z"/></g>
<g><path style="opacity:1" fill="#565656" d="M 1008.5,1424.5 C 1014.64,1425.49 1020.98,1425.82 1027.5,1425.5C 1020.99,1426.82 1014.32,1426.82 1007.5,1425.5C 1007.62,1424.89 1007.96,1424.56 1008.5,1424.5 Z"/></g>
<g><path style="opacity:1" fill="#595959" d="M 1092.5,1424.5 C 1089.74,1425.82 1086.58,1426.48 1083,1426.5C 1079.65,1426.5 1076.48,1426.16 1073.5,1425.5C 1079.92,1425.79 1086.26,1425.46 1092.5,1424.5 Z"/></g>
<g><path style="opacity:1" fill="#525252" d="M 1187.5,1414.5 C 1187.5,1418.5 1187.5,1422.5 1187.5,1426.5C 1174.66,1426.83 1161.99,1426.5 1149.5,1425.5C 1161.83,1425.5 1174.17,1425.5 1186.5,1425.5C 1186.19,1421.63 1186.52,1417.96 1187.5,1414.5 Z"/></g>
<g><path style="opacity:1" fill="#595959" d="M 1230.5,1423.5 C 1236.45,1425.14 1242.78,1426.14 1249.5,1426.5C 1249.38,1427.11 1249.04,1427.44 1248.5,1427.5C 1242.36,1426.51 1236.02,1426.18 1229.5,1426.5C 1229.26,1425.21 1229.6,1424.21 1230.5,1423.5 Z"/></g>
<g><path style="opacity:1" fill="#4c4c4c" d="M 457.5,1462.5 C 494.669,1461.17 532.002,1461.17 569.5,1462.5C 569.376,1463.11 569.043,1463.44 568.5,1463.5C 531.67,1462.5 494.67,1462.17 457.5,1462.5 Z"/></g>
<g><path style="opacity:1" fill="#484848" d="M 621.5,1462.5 C 671.002,1461.17 720.668,1461.17 770.5,1462.5C 770.376,1463.11 770.043,1463.44 769.5,1463.5C 720.336,1462.5 671.003,1462.17 621.5,1462.5 Z"/></g>
<g><path style="opacity:1" fill="#4a4a4a" d="M 872.5,1462.5 C 909.33,1461.5 946.33,1461.17 983.5,1461.5C 983.737,1462.79 983.404,1463.79 982.5,1464.5C 946.182,1462.51 909.515,1461.84 872.5,1462.5 Z"/></g>
<g><path style="opacity:1" fill="#181818" d="M 1198.5,1543.5 C 1197.6,1544.21 1197.26,1545.21 1197.5,1546.5C 1221.5,1546.5 1245.5,1546.5 1269.5,1546.5C 1266.08,1557.09 1259.08,1564.25 1248.5,1568C 1244.29,1569.71 1239.96,1571.04 1235.5,1572C 1205.17,1572.67 1174.83,1572.67 1144.5,1572C 1136.01,1570.51 1131.34,1565.51 1130.5,1557C 1135.02,1542.1 1139.52,1527.27 1144,1512.5C 1123.41,1528.55 1102.91,1544.71 1082.5,1561C 1074.43,1566.03 1065.76,1569.69 1056.5,1572C 1043.82,1572.83 1031.15,1572.67 1018.5,1571.5C 1020.18,1566.44 1021.68,1561.44 1023,1556.5C 1017.47,1563.69 1010.3,1568.52 1001.5,1571C 970.194,1572.6 938.861,1572.94 907.5,1572C 897.601,1571.15 891.434,1565.99 889,1556.5C 869.256,1574.81 846.423,1579.98 820.5,1572C 811.055,1567.55 803.888,1560.72 799,1551.5C 792.646,1563.83 782.479,1570.66 768.5,1572C 722.5,1572.67 676.5,1572.67 630.5,1572C 619.022,1571.38 612.189,1565.54 610,1554.5C 603.179,1564.5 593.679,1570.34 581.5,1572C 552.167,1572.67 522.833,1572.67 493.5,1572C 482.847,1571.34 476.68,1565.84 475,1555.5C 458.639,1572.18 438.806,1578.68 415.5,1575C 387.959,1566.72 376.792,1548.22 382,1519.5C 386.731,1499.78 397.897,1484.94 415.5,1475C 428.573,1467.73 442.573,1463.56 457.5,1462.5C 494.67,1462.17 531.67,1462.5 568.5,1463.5C 559.48,1490.2 550.48,1516.86 541.5,1543.5C 540.596,1544.21 540.263,1545.21 540.5,1546.5C 565.006,1546.83 589.339,1546.5 613.5,1545.5C 613.987,1544.53 614.487,1543.53 615,1542.5C 633.7,1524.63 652.2,1506.63 670.5,1488.5C 651.882,1488.15 632.882,1487.15 613.5,1485.5C 615.888,1477.73 618.554,1470.06 621.5,1462.5C 671.003,1462.17 720.336,1462.5 769.5,1463.5C 742.286,1490.88 715.286,1518.38 688.5,1546C 692.152,1546.5 695.818,1546.67 699.5,1546.5C 732.167,1546.5 764.833,1546.5 797.5,1546.5C 797.737,1545.21 797.404,1544.21 796.5,1543.5C 792.898,1517.22 801.564,1496.05 822.5,1480C 837.482,1469.51 854.149,1463.67 872.5,1462.5C 909.515,1461.84 946.182,1462.51 982.5,1464.5C 973.101,1491.7 964.101,1519.03 955.5,1546.5C 979.5,1546.5 1003.5,1546.5 1027.5,1546.5C 1036.63,1518.44 1045.96,1490.44 1055.5,1462.5C 1076.5,1461.17 1097.5,1461.17 1118.5,1462.5C 1112.34,1480.5 1106.51,1498.5 1101,1516.5C 1121.59,1499.24 1142.76,1482.74 1164.5,1467C 1179.9,1457.65 1196.23,1455.32 1213.5,1460C 1218.36,1463.23 1220.36,1467.73 1219.5,1473.5C 1219.47,1477.24 1218.97,1480.9 1218,1484.5C 1211.4,1504.14 1204.9,1523.81 1198.5,1543.5 Z"/></g>
<g><path style="opacity:1" fill="#787878" d="M 460.5,1488.5 C 472.673,1487.18 485.006,1487.18 497.5,1488.5C 497.376,1489.11 497.043,1489.44 496.5,1489.5C 484.678,1488.5 472.678,1488.17 460.5,1488.5 Z"/></g>
<g><path style="opacity:1" fill="#797979" d="M 613.5,1485.5 C 632.882,1487.15 651.882,1488.15 670.5,1488.5C 651.167,1488.5 631.833,1488.5 612.5,1488.5C 612.263,1487.21 612.596,1486.21 613.5,1485.5 Z"/></g>
<g><path style="opacity:1" fill="#fafafa" d="M 460.5,1488.5 C 472.678,1488.17 484.678,1488.5 496.5,1489.5C 490.242,1507.77 484.076,1526.11 478,1544.5C 468.883,1547.16 460.049,1545.99 451.5,1541C 448.09,1537.1 446.924,1532.6 448,1527.5C 452.072,1514.45 456.239,1501.45 460.5,1488.5 Z"/></g>
<g><path style="opacity:1" fill="#fafafa" d="M 874.5,1488.5 C 886.838,1488.33 899.171,1488.5 911.5,1489C 904.666,1508 898.333,1527.17 892.5,1546.5C 884.569,1547.03 876.902,1545.87 869.5,1543C 863.092,1539.68 860.925,1534.51 863,1527.5C 866.941,1514.51 870.775,1501.51 874.5,1488.5 Z"/></g>
<g><path style="opacity:1" fill="#dcdcdc" d="M 541.5,1543.5 C 565.143,1545.49 589.143,1546.16 613.5,1545.5C 589.339,1546.5 565.006,1546.83 540.5,1546.5C 540.263,1545.21 540.596,1544.21 541.5,1543.5 Z"/></g>
<g><path style="opacity:1" fill="#dcdcdc" d="M 796.5,1543.5 C 797.404,1544.21 797.737,1545.21 797.5,1546.5C 764.833,1546.5 732.167,1546.5 699.5,1546.5C 732.013,1546.16 764.346,1545.16 796.5,1543.5 Z"/></g>
<g><path style="opacity:1" fill="#dddddd" d="M 1198.5,1543.5 C 1221.98,1545.16 1245.65,1546.16 1269.5,1546.5C 1245.5,1546.5 1221.5,1546.5 1197.5,1546.5C 1197.26,1545.21 1197.6,1544.21 1198.5,1543.5 Z"/></g>
</svg>
