<?xml version="1.0" encoding="UTF-8"?>
<!DOCTYPE svg PUBLIC "-//W3C//DTD SVG 1.1//EN" "http://www.w3.org/Graphics/SVG/1.1/DTD/svg11.dtd">
<svg xmlns="http://www.w3.org/2000/svg" version="1.1" width="1244px" height="1264px" style="shape-rendering:geometricPrecision; text-rendering:geometricPrecision; image-rendering:optimizeQuality; fill-rule:evenodd; clip-rule:evenodd" xmlns:xlink="http://www.w3.org/1999/xlink">
<g><path style="opacity:1" fill="#fdfdfd" d="M -0.5,-0.5 C 414.167,-0.5 828.833,-0.5 1243.5,-0.5C 1243.5,420.833 1243.5,842.167 1243.5,1263.5C 828.833,1263.5 414.167,1263.5 -0.5,1263.5C -0.5,842.167 -0.5,420.833 -0.5,-0.5 Z"/></g>
<g><path style="opacity:1" fill="#3b3b3b" d="M 590.5,9.5 C 585.052,12.7608 579.052,14.7608 572.5,15.5C 577.997,12.2851 583.997,10.2851 590.5,9.5 Z"/></g>
<g><path style="opacity:1" fill="#1a1a1a" d="M 652.5,87.5 C 652.333,131.835 652.5,176.168 653,220.5C 653.567,217.832 654.067,215.166 654.5,212.5C 661.67,156.136 669.17,99.8023 677,43.5C 677.249,42.376 677.749,41.376 678.5,40.5C 721.996,56.7928 758.829,82.7928 789,118.5C 827.825,163.83 851.825,216.163 861,275.5C 862.256,285.459 862.756,295.459 862.5,305.5C 883.795,306.629 895.462,317.795 897.5,339C 896.722,347.604 895.389,356.104 893.5,364.5C 697.236,365.499 500.903,365.832 304.5,365.5C 304.405,363.214 303.738,361.214 302.5,359.5C 301.378,352.721 300.712,345.887 300.5,339C 300.575,323.327 307.908,312.827 322.5,307.5C 326.163,307.048 329.83,306.548 333.5,306C 334.056,305.617 334.389,305.117 334.5,304.5C 335.25,266.501 343.416,230.167 359,195.5C 383.534,141.965 420.034,98.4654 468.5,65C 484.245,54.9609 500.912,46.7942 518.5,40.5C 519.192,41.0253 519.692,41.6919 520,42.5C 528.246,101.465 536.246,160.465 544,219.5C 544.194,160.826 544.694,102.159 545.5,43.5C 545.833,41.1667 546.167,38.8333 546.5,36.5C 551.319,32.1819 555.985,27.6819 560.5,23C 564.388,20.2279 568.388,17.7279 572.5,15.5C 579.052,14.7608 585.052,12.7608 590.5,9.5C 606.904,8.02496 621.904,12.1916 635.5,22C 640.365,27.2 645.532,32.0334 651,36.5C 652.316,53.4719 652.816,70.4719 652.5,87.5 Z"/></g>
<g><path style="opacity:1" fill="#6b6b6b" d="M 591.5,26.5 C 608.331,25.916 622.331,31.916 633.5,44.5C 634.332,54.8173 634.832,65.1506 635,75.5C 635.333,151.5 635.667,227.5 636,303.5C 635.362,310.497 637.529,316.33 642.5,321C 647.687,322.167 651.854,320.667 655,316.5C 656.921,309.564 658.587,302.564 660,295.5C 671.649,218.976 682.149,142.309 691.5,65.5C 726.532,82.3085 756.366,105.975 781,136.5C 815.632,179.117 836.632,227.783 844,282.5C 844.333,294.833 844.667,307.167 845,319.5C 853.133,320.957 861.3,322.457 869.5,324C 879.148,328.927 882.148,336.594 878.5,347C 691.834,347.5 505.167,347.667 318.5,347.5C 314.566,332.525 320.232,324.025 335.5,322C 341.489,321.301 347.489,320.801 353.5,320.5C 350.483,283.082 356.316,247.082 371,212.5C 392.947,159.565 427.113,116.399 473.5,83C 483.185,76.1538 493.518,70.3205 504.5,65.5C 515.92,147.188 527.753,228.855 540,310.5C 541.315,317.82 545.649,321.487 553,321.5C 555.281,320.224 557.281,318.557 559,316.5C 560.591,308.257 561.591,299.924 562,291.5C 562.167,209.165 562.667,126.831 563.5,44.5C 571.3,35.9439 580.634,29.9439 591.5,26.5 Z"/></g>
<g><path style="opacity:1" fill="#848484" d="M 652.5,87.5 C 653.167,129.167 653.833,170.833 654.5,212.5C 654.067,215.166 653.567,217.832 653,220.5C 652.5,176.168 652.333,131.835 652.5,87.5 Z"/></g>
<g><path style="opacity:1" fill="#585858" d="M 334.5,304.5 C 334.389,305.117 334.056,305.617 333.5,306C 329.83,306.548 326.163,307.048 322.5,307.5C 326.2,305.755 330.2,304.755 334.5,304.5 Z"/></g>
<g><path style="opacity:1" fill="#dddddd" d="M 302.5,359.5 C 303.738,361.214 304.405,363.214 304.5,365.5C 500.903,365.832 697.236,365.499 893.5,364.5C 696.475,366.171 499.142,367.171 301.5,367.5C 301.575,364.794 301.908,362.127 302.5,359.5 Z"/></g>
<g><path style="opacity:1" fill="#5d5d5d" d="M 877.5,399.5 C 877.5,391.833 877.5,384.167 877.5,376.5C 691.167,376.5 504.833,376.5 318.5,376.5C 318.5,385.167 318.5,393.833 318.5,402.5C 317.507,393.682 317.173,384.682 317.5,375.5C 504.5,375.5 691.5,375.5 878.5,375.5C 878.826,383.684 878.492,391.684 877.5,399.5 Z"/></g>
<g><path style="opacity:1" fill="#191919" d="M 877.5,399.5 C 877.335,403.182 877.501,406.848 878,410.5C 884.708,421.418 891.542,432.251 898.5,443C 905.517,442.668 912.517,441.835 919.5,440.5C 923.997,421.177 928.497,401.844 933,382.5C 933.839,381.376 935.006,380.709 936.5,380.5C 938.207,380.728 939.874,381.062 941.5,381.5C 943.838,383.04 946.505,383.706 949.5,383.5C 962.791,386.336 976.124,389.336 989.5,392.5C 991.838,394.04 994.505,394.706 997.5,394.5C 1011.87,397.675 1026.2,401.008 1040.5,404.5C 1040.83,405.333 1041.17,406.167 1041.5,407C 1037.06,426.329 1032.72,445.663 1028.5,465C 1032.82,468.973 1037.49,472.639 1042.5,476C 1043.5,476.667 1044.5,476.667 1045.5,476C 1062.5,465.167 1079.5,454.333 1096.5,443.5C 1116.67,474.496 1136.33,505.83 1155.5,537.5C 1155.29,538.086 1154.96,538.586 1154.5,539C 1137.46,549.179 1120.8,559.845 1104.5,571C 1106.15,577.746 1107.32,584.58 1108,591.5C 1111.78,592.803 1115.62,593.803 1119.5,594.5C 1122.64,596.554 1125.64,598.221 1128.5,599.5C 1129.45,599.013 1130.45,598.68 1131.5,598.5C 1135.44,599.556 1139.44,600.223 1143.5,600.5C 1148.38,601.085 1153.04,602.085 1157.5,603.5C 1157.99,604.473 1158.49,605.473 1159,606.5C 1160.73,605.424 1162.56,605.257 1164.5,606C 1166.12,606.236 1167.12,607.069 1167.5,608.5C 1159.83,643.861 1152.16,679.194 1144.5,714.5C 1129.26,710.699 1113.92,707.199 1098.5,704C 1093.54,702.672 1088.54,702.006 1083.5,702C 1079.28,708.294 1074.94,714.461 1070.5,720.5C 1079.73,735.963 1089.23,751.296 1099,766.5C 1100.59,768.65 1101.26,770.983 1101,773.5C 1070.12,792.696 1039.28,812.029 1008.5,831.5C 997.514,814.203 986.514,796.87 975.5,779.5C 973.484,778.306 971.484,778.306 969.5,779.5C 964.196,780.384 958.863,781.051 953.5,781.5C 953.263,782.791 953.596,783.791 954.5,784.5C 995.544,814.836 1023.04,854.836 1037,904.5C 1045.69,934.293 1051.69,964.626 1055,995.5C 1060.76,1040.33 1064.26,1085.33 1065.5,1130.5C 1013.17,1130.33 960.832,1130.5 908.5,1131C 907.748,1131.67 907.414,1132.5 907.5,1133.5C 906.295,1136.23 904.795,1138.9 903,1141.5C 900.33,1143 898.164,1145 896.5,1147.5C 899.05,1157.15 900.717,1166.98 901.5,1177C 900.507,1189.49 893.841,1196.66 881.5,1198.5C 879.5,1198.5 877.5,1198.5 875.5,1198.5C 875.5,1207.83 875.5,1217.17 875.5,1226.5C 864.646,1243.35 849.313,1253.35 829.5,1256.5C 821.138,1256.67 812.805,1256.33 804.5,1255.5C 787.11,1250.89 773.276,1241.22 763,1226.5C 762.831,1218.81 762.331,1211.15 761.5,1203.5C 758.827,1202.5 756.493,1201 754.5,1199C 743.471,1197.84 736.471,1192.01 733.5,1181.5C 733.5,1164.5 733.5,1147.5 733.5,1130.5C 649.833,1130.5 566.167,1130.5 482.5,1130.5C 482.5,1144.83 482.5,1159.17 482.5,1173.5C 480.217,1185.24 473.051,1191.58 461,1192.5C 460.667,1200.17 460.333,1207.83 460,1215.5C 445.327,1249.08 419.827,1263.92 383.5,1260C 359.271,1253.08 343.271,1237.58 335.5,1213.5C 336.833,1213.5 338.167,1213.5 339.5,1213.5C 341.09,1213.37 342.423,1212.71 343.5,1211.5C 340.914,1210.52 338.247,1210.19 335.5,1210.5C 335.5,1205.83 335.5,1201.17 335.5,1196.5C 335.5,1195.17 335.5,1193.83 335.5,1192.5C 331.313,1192.61 327.313,1191.77 323.5,1190C 314.445,1182.98 311.278,1173.81 314,1162.5C 314.594,1156.82 315.26,1151.16 316,1145.5C 316.833,1143.83 317.667,1142.17 318.5,1140.5C 316.481,1138.81 314.481,1137.14 312.5,1135.5C 311.5,1134.17 310.5,1132.83 309.5,1131.5C 250.002,1130.5 190.336,1130.17 130.5,1130.5C 130.5,1128.5 130.5,1126.5 130.5,1124.5C 132.206,1062.31 138.706,1000.64 150,939.5C 156.914,903.908 169.414,870.575 187.5,839.5C 202.785,816.882 221.785,797.882 244.5,782.5C 240.251,781.274 235.917,780.607 231.5,780.5C 228.591,778.713 225.591,778.379 222.5,779.5C 211.526,796.816 200.526,814.149 189.5,831.5C 184.272,827.387 178.605,824.054 172.5,821.5C 147.054,805.229 121.721,788.729 96.5,772C 106.254,755.246 116.421,738.746 127,722.5C 127.667,721.167 127.667,719.833 127,718.5C 122.345,713.189 118.178,707.522 114.5,701.5C 113.833,701.167 113.167,700.833 112.5,700.5C 93.0036,705.732 73.337,710.065 53.5,713.5C 46.3048,677.834 38.3048,642.334 29.5,607C 29.9054,606.055 30.572,605.388 31.5,605C 37.0861,603.383 42.7528,602.216 48.5,601.5C 54.7962,601.84 60.4629,600.507 65.5,597.5C 73.0527,595.355 80.7194,593.521 88.5,592C 90.4823,585.464 92.1489,578.797 93.5,572C 93.1667,571.167 92.8333,570.333 92.5,569.5C 76.1667,559.333 59.8333,549.167 43.5,539C 42.4829,537.951 42.3162,536.784 43,535.5C 62.0418,505.249 81.2085,475.082 100.5,445C 102.598,445.032 104.598,445.699 106.5,447C 122.233,456.952 138.066,466.785 154,476.5C 158.685,472.986 163.519,469.653 168.5,466.5C 168.833,466 169.167,465.5 169.5,465C 165.459,445.172 160.793,425.505 155.5,406C 158.316,403.621 161.649,402.455 165.5,402.5C 168.079,402.083 170.246,402.75 172,404.5C 172.915,403.672 173.581,402.672 174,401.5C 175.726,402.576 177.559,402.743 179.5,402C 178.833,401.667 178.167,401.333 177.5,401C 179.315,400.243 180.981,399.41 182.5,398.5C 184.042,397.699 185.708,397.366 187.5,397.5C 191.327,397.21 194.994,397.21 198.5,397.5C 199.894,396.146 201.894,394.812 204.5,393.5C 223.121,388.805 241.955,384.472 261,380.5C 262.167,380.833 263.333,381.167 264.5,381.5C 269.168,401.174 273.835,420.841 278.5,440.5C 284.336,441.463 290.17,442.463 296,443.5C 297.436,443.441 298.769,443.108 300,442.5C 305.749,432.666 311.749,422.999 318,413.5C 318.499,409.848 318.665,406.182 318.5,402.5C 318.5,393.833 318.5,385.167 318.5,376.5C 504.833,376.5 691.167,376.5 877.5,376.5C 877.5,384.167 877.5,391.833 877.5,399.5 Z"/></g>
<g><path style="opacity:1" fill="#8e8e8e" d="M 941.5,381.5 C 944.428,381.565 947.095,382.232 949.5,383.5C 946.505,383.706 943.838,383.04 941.5,381.5 Z"/></g>
<g><path style="opacity:1" fill="#373737" d="M 336.5,393.5 C 510.999,392.5 685.666,392.167 860.5,392.5C 860.813,396.042 860.479,399.375 859.5,402.5C 859.5,399.5 859.5,396.5 859.5,393.5C 685.167,393.5 510.833,393.5 336.5,393.5 Z"/></g>
<g><path style="opacity:1" fill="#868686" d="M 989.5,392.5 C 992.428,392.565 995.095,393.232 997.5,394.5C 994.505,394.706 991.838,394.04 989.5,392.5 Z"/></g>
<g><path style="opacity:1" fill="#fdfdfd" d="M 336.5,393.5 C 510.833,393.5 685.167,393.5 859.5,393.5C 859.5,396.5 859.5,399.5 859.5,402.5C 859.279,461.448 845.779,517.114 819,569.5C 796.295,608.548 766.795,641.715 730.5,669C 716.129,679.179 701.796,689.346 687.5,699.5C 720.842,710.994 754.509,721.661 788.5,731.5C 788.167,746.182 788.501,760.848 789.5,775.5C 793.302,778.804 796.135,782.804 798,787.5C 798.5,846.499 798.667,905.499 798.5,964.5C 786.5,964.5 774.5,964.5 762.5,964.5C 762.5,979.5 762.5,994.5 762.5,1009.5C 750.988,1009.17 739.654,1009.51 728.5,1010.5C 721.187,1012.98 716.354,1017.98 714,1025.5C 713.333,1047.83 713.333,1070.17 714,1092.5C 716.511,1102.18 722.678,1107.85 732.5,1109.5C 732.5,1110.83 732.5,1112.17 732.5,1113.5C 649.5,1113.5 566.5,1113.5 483.5,1113.5C 483.177,1109.77 483.511,1106.11 484.5,1102.5C 493.804,1100.36 499.637,1094.7 502,1085.5C 502.667,1062.5 502.667,1039.5 502,1016.5C 499.337,1010 494.837,1005.34 488.5,1002.5C 476.006,1001.18 463.673,1001.18 451.5,1002.5C 449.94,1000.84 448.94,998.844 448.5,996.5C 446.306,959.516 444.806,922.516 444,885.5C 446.833,881.333 450.333,877.833 454.5,875C 481.998,860.879 497.831,838.379 502,807.5C 505.344,769.381 492.178,738.547 462.5,715C 477.782,709.795 493.115,704.795 508.5,700C 481.05,681.598 455.05,661.264 430.5,639C 382.16,591.159 352.66,533.326 342,465.5C 338.139,441.643 336.305,417.643 336.5,393.5 Z"/></g>
<g><path style="opacity:1" fill="#393939" d="M 204.5,393.5 C 201.894,394.812 199.894,396.146 198.5,397.5C 194.994,397.21 191.327,397.21 187.5,397.5C 192.878,395.421 198.544,394.087 204.5,393.5 Z"/></g>
<g><path style="opacity:1" fill="#3e3e3e" d="M 182.5,398.5 C 180.981,399.41 179.315,400.243 177.5,401C 178.167,401.333 178.833,401.667 179.5,402C 177.559,402.743 175.726,402.576 174,401.5C 173.581,402.672 172.915,403.672 172,404.5C 170.246,402.75 168.079,402.083 165.5,402.5C 170.982,400.857 176.649,399.523 182.5,398.5 Z"/></g>
<g><path style="opacity:1" fill="#303030" d="M 946.5,401.5 C 971.257,406.188 995.923,411.521 1020.5,417.5C 1017.15,436.208 1013.15,454.875 1008.5,473.5C 1009.01,475.088 1010.01,476.255 1011.5,477C 1022.57,483.193 1032.9,490.36 1042.5,498.5C 1057.77,488.923 1073.11,479.256 1088.5,469.5C 1089.74,468.754 1091.07,468.421 1092.5,468.5C 1103.8,487.75 1115.63,506.75 1128,525.5C 1129.91,528.206 1130.74,531.206 1130.5,534.5C 1127.98,534.755 1125.65,535.589 1123.5,537C 1110.58,545.594 1097.41,553.761 1084,561.5C 1085.88,570.411 1087.88,579.411 1090,588.5C 1090.96,594.465 1091.46,600.465 1091.5,606.5C 1109.65,611.348 1127.99,615.348 1146.5,618.5C 1141.5,643.164 1136.5,667.831 1131.5,692.5C 1125.78,692.136 1120.11,691.303 1114.5,690C 1101.86,686.466 1089.03,683.299 1076,680.5C 1075.5,680.833 1075,681.167 1074.5,681.5C 1070.53,688.631 1066.37,695.631 1062,702.5C 1056.9,707.761 1052.4,713.427 1048.5,719.5C 1058.9,734.626 1068.57,750.293 1077.5,766.5C 1056.54,780.227 1035.37,793.561 1014,806.5C 1012.78,805.728 1011.78,804.728 1011,803.5C 1002.53,788.216 993.366,773.383 983.5,759C 969.071,762.137 954.405,763.97 939.5,764.5C 938.841,767.455 938.508,770.455 938.5,773.5C 925.798,767.355 913.132,760.855 900.5,754C 887.085,749.452 874.085,744.119 861.5,738C 857.986,736.438 854.319,735.605 850.5,735.5C 850.5,727.5 850.5,719.5 850.5,711.5C 828.137,711.4 805.804,711.566 783.5,712C 771.91,707.878 760.243,703.878 748.5,700C 746.494,696.996 744.494,693.996 742.5,691C 742.759,689.739 743.426,688.739 744.5,688C 759.715,678.279 775.049,668.779 790.5,659.5C 790.833,658.833 791.167,658.167 791.5,657.5C 789.837,651.86 788.67,646.193 788,640.5C 825.55,600.64 851.216,553.974 865,500.5C 869.148,480.944 872.648,461.277 875.5,441.5C 880.73,447.611 885.23,454.278 889,461.5C 890.019,462.687 891.186,463.687 892.5,464.5C 906.193,460.362 920.193,458.028 934.5,457.5C 938.509,438.801 942.509,420.134 946.5,401.5 Z"/></g>
<g><path style="opacity:1" fill="#303030" d="M 247.5,401.5 C 248.833,401.5 250.167,401.5 251.5,401.5C 255.247,420.569 259.247,439.569 263.5,458.5C 269.509,458.334 275.509,458.501 281.5,459C 290.215,460.949 298.882,462.783 307.5,464.5C 307.351,463.448 307.517,462.448 308,461.5C 312.416,455.665 316.583,449.665 320.5,443.5C 324.434,471.236 330.267,498.57 338,525.5C 340.805,532.914 343.805,540.247 347,547.5C 347.667,548.833 347.667,550.167 347,551.5C 322.082,518.629 288.916,503.463 247.5,506C 205.205,513.024 176.038,536.524 160,576.5C 147.55,621.044 157.717,659.378 190.5,691.5C 225.196,718.258 263.196,723.758 304.5,708C 357.002,677.926 375.502,633.426 360,574.5C 372.917,598.749 388.917,620.749 408,640.5C 408.875,641.873 409.375,643.373 409.5,645C 408.657,649.04 407.657,653.04 406.5,657C 406.735,657.873 407.069,658.707 407.5,659.5C 416.423,665.305 425.423,671.138 434.5,677C 438.19,679.512 442.19,681.512 446.5,683C 449.311,685.573 452.311,687.906 455.5,690C 449.347,703.629 439.68,706.629 426.5,699C 424.527,698.505 422.527,698.338 420.5,698.5C 420.823,702.226 420.489,705.893 419.5,709.5C 405.091,714.747 390.424,719.413 375.5,723.5C 374.833,715.167 374.167,706.833 373.5,698.5C 341.528,705.321 317.694,722.987 302,751.5C 288.083,757.625 274.416,764.292 261,771.5C 259.589,769.35 258.755,767.016 258.5,764.5C 250.135,764.553 241.802,764.053 233.5,763C 227.251,761.022 220.918,759.689 214.5,759C 205.027,773.51 195.86,788.343 187,803.5C 185.981,804.687 184.814,805.687 183.5,806.5C 162.346,793.849 141.512,780.849 121,767.5C 120.333,766.5 120.333,765.5 121,764.5C 131.263,749.641 140.763,734.307 149.5,718.5C 141.193,708.564 133.359,698.231 126,687.5C 125.187,685.564 124.687,683.564 124.5,681.5C 121.15,681.335 117.817,681.502 114.5,682C 98.9672,686.006 83.3005,689.506 67.5,692.5C 61.8481,668.263 56.5147,643.93 51.5,619.5C 69.5671,614.285 87.9004,609.951 106.5,606.5C 106.969,600.838 107.469,595.171 108,589.5C 110.194,580.536 111.86,571.536 113,562.5C 98.8892,552.555 84.3892,543.221 69.5,534.5C 68.5853,533.672 67.9186,532.672 67.5,531.5C 79.0251,511.134 91.1918,491.134 104,471.5C 104.906,469.388 106.406,468.555 108.5,469C 123.952,479.381 139.619,489.214 155.5,498.5C 166.369,489.264 177.702,480.93 189.5,473.5C 186.988,461.429 184.154,449.429 181,437.5C 179.598,430.837 178.598,424.17 178,417.5C 201.25,412.219 224.416,406.885 247.5,401.5 Z"/></g>
<g><path style="opacity:1" fill="#bdbdbd" d="M 269.5,524.5 C 260.148,524.434 250.815,524.768 241.5,525.5C 246.925,524.016 252.591,523.349 258.5,523.5C 262.349,523.501 266.016,523.835 269.5,524.5 Z"/></g>
<g><path style="opacity:1" fill="#fcfcfc" d="M 269.5,524.5 C 311.763,530.59 337.596,554.59 347,596.5C 351.181,643.169 332.015,675.835 289.5,694.5C 286.848,694.41 284.515,695.076 282.5,696.5C 282.167,696.5 281.833,696.5 281.5,696.5C 277.96,696.753 274.627,697.419 271.5,698.5C 228.656,701.99 197.822,684.323 179,645.5C 164.025,601.1 175.192,564.933 212.5,537C 221.51,531.494 231.177,527.661 241.5,525.5C 250.815,524.768 260.148,524.434 269.5,524.5 Z"/></g>
<g><path style="opacity:1" fill="#191919" d="M 927.5,505.5 C 969.443,503.724 1002.61,519.724 1027,553.5C 1048.84,592.103 1048.84,630.769 1027,669.5C 998.869,707.367 961.369,722.367 914.5,714.5C 907.115,713.407 900.115,711.24 893.5,708C 845.746,681.531 826.246,641.031 835,586.5C 849.243,540.417 880.076,513.417 927.5,505.5 Z"/></g>
<g><path style="opacity:1" fill="#fcfcfc" d="M 924.5,524.5 C 934.524,524.334 944.524,524.668 954.5,525.5C 991.959,533.458 1015.13,556.125 1024,593.5C 1030.3,644.418 1009.47,678.585 961.5,696C 957.301,696.528 953.301,697.361 949.5,698.5C 939.806,698.693 930.139,698.36 920.5,697.5C 887.54,689.718 865.374,669.718 854,637.5C 843.586,594.056 856.752,559.889 893.5,535C 903.222,529.593 913.555,526.093 924.5,524.5 Z"/></g>
<g><path style="opacity:1" fill="#bdbdbd" d="M 924.5,524.5 C 928.486,523.834 932.653,523.501 937,523.5C 943.083,523.299 948.916,523.966 954.5,525.5C 944.524,524.668 934.524,524.334 924.5,524.5 Z"/></g>
<g><path style="opacity:1" fill="#3c3c3c" d="M 1119.5,594.5 C 1127.7,596.135 1135.7,598.135 1143.5,600.5C 1139.44,600.223 1135.44,599.556 1131.5,598.5C 1130.45,598.68 1129.45,599.013 1128.5,599.5C 1125.64,598.221 1122.64,596.554 1119.5,594.5 Z"/></g>
<g><path style="opacity:1" fill="#484848" d="M 65.5,597.5 C 60.4629,600.507 54.7962,601.84 48.5,601.5C 53.9364,599.676 59.6031,598.342 65.5,597.5 Z"/></g>
<g><path style="opacity:1" fill="#4d4d4d" d="M 1157.5,603.5 C 1160.52,603.804 1163.52,604.304 1166.5,605C 1168.5,605.924 1168.83,607.09 1167.5,608.5C 1167.12,607.069 1166.12,606.236 1164.5,606C 1162.56,605.257 1160.73,605.424 1159,606.5C 1158.49,605.473 1157.99,604.473 1157.5,603.5 Z"/></g>
<g><path style="opacity:1" fill="#6b6b6b" d="M 289.5,694.5 C 287.485,695.924 285.152,696.59 282.5,696.5C 284.515,695.076 286.848,694.41 289.5,694.5 Z"/></g>
<g><path style="opacity:1" fill="#6d6d6d" d="M 281.5,696.5 C 281.082,697.222 280.416,697.722 279.5,698C 276.854,698.497 274.187,698.664 271.5,698.5C 274.627,697.419 277.96,696.753 281.5,696.5 Z"/></g>
<g><path style="opacity:1" fill="#898989" d="M 920.5,697.5 C 930.139,698.36 939.806,698.693 949.5,698.5C 940.676,699.657 931.676,699.824 922.5,699C 921.584,698.722 920.918,698.222 920.5,697.5 Z"/></g>
<g><path style="opacity:1" fill="#555555" d="M 354.5,723.5 C 356.492,753.482 357.159,783.815 356.5,814.5C 384.005,814.831 411.338,814.498 438.5,813.5C 438.167,783.493 438.5,753.493 439.5,723.5C 461.325,733.533 475.492,750.2 482,773.5C 487.082,796.52 483.749,818.187 472,838.5C 469.5,841.333 467,844.167 464.5,847C 456.167,852.667 447.833,858.333 439.5,864C 433.037,868.787 428.537,874.954 426,882.5C 426.465,926.546 428.299,970.546 431.5,1014.5C 409.187,1012.85 386.853,1011.52 364.5,1010.5C 367.04,968.19 368.874,925.857 370,883.5C 367.377,875.773 362.877,869.273 356.5,864C 320.482,846.238 305.982,817.405 313,777.5C 318.004,752.668 331.838,734.668 354.5,723.5 Z"/></g>
<g><path style="opacity:1" fill="#fbfbfb" d="M 420.5,795.5 C 405.5,795.5 390.5,795.5 375.5,795.5C 375.5,777.833 375.5,760.167 375.5,742.5C 390.206,737.115 405.039,732.115 420,727.5C 420.5,750.164 420.667,772.831 420.5,795.5 Z"/></g>
<g><path style="opacity:1" fill="#555555" d="M 806.5,729.5 C 815.167,729.5 823.833,729.5 832.5,729.5C 832.667,742.504 832.5,755.504 832,768.5C 827.277,773.231 824.277,778.898 823,785.5C 822.5,840.499 822.333,895.499 822.5,950.5C 820.5,950.5 818.5,950.5 816.5,950.5C 816.667,895.166 816.5,839.832 816,784.5C 814.303,778.104 811.303,772.438 807,767.5C 806.5,754.838 806.333,742.171 806.5,729.5 Z"/></g>
<g><path style="opacity:1" fill="#fdfdfd" d="M 893.5,1017.5 C 885.833,1016.83 878.167,1016.17 870.5,1015.5C 872.284,1015.11 873.95,1014.44 875.5,1013.5C 876.496,997.342 876.83,981.009 876.5,964.5C 865.012,963.505 853.345,963.172 841.5,963.5C 841.832,906.664 841.499,849.998 840.5,793.5C 840.784,786.032 843.951,780.032 850,775.5C 850.169,768.144 850.669,760.811 851.5,753.5C 883.451,765.143 913.784,779.976 942.5,798C 975.377,821.218 998.877,851.718 1013,889.5C 1027.09,931.751 1036.09,975.085 1040,1019.5C 1043.23,1050.76 1045.4,1082.09 1046.5,1113.5C 1000.17,1113.5 953.833,1113.5 907.5,1113.5C 907.823,1104.84 906.157,1096.67 902.5,1089C 907.915,1084.69 911.748,1079.19 914,1072.5C 914.197,1061.47 913.531,1050.47 912,1039.5C 910.374,1028.37 904.207,1021.04 893.5,1017.5 Z"/></g>
<g><path style="opacity:1" fill="#989898" d="M 222.5,779.5 C 225.591,778.379 228.591,778.713 231.5,780.5C 228.455,780.492 225.455,780.159 222.5,779.5 Z"/></g>
<g><path style="opacity:1" fill="#fdfdfd" d="M 346.5,1008.5 C 338.845,1007.69 331.178,1007.52 323.5,1008C 321.148,1008.24 319.148,1009.07 317.5,1010.5C 310.024,1013.82 305.19,1019.48 303,1027.5C 301.336,1039.47 300.336,1051.47 300,1063.5C 302.075,1070.66 305.909,1076.66 311.5,1081.5C 308.102,1091.5 306.436,1101.84 306.5,1112.5C 254.167,1112.5 201.833,1112.5 149.5,1112.5C 149.5,1109.5 149.5,1106.5 149.5,1103.5C 151.801,1042.82 159.301,982.817 172,923.5C 187.999,853.358 228.832,804.024 294.5,775.5C 289.621,803.218 295.121,828.552 311,851.5C 320.291,862.051 331.125,870.551 343.5,877C 346.704,879.869 349.537,883.035 352,886.5C 351.204,927.194 349.37,967.861 346.5,1008.5 Z"/></g>
<g><path style="opacity:1" fill="#bcbcbc" d="M 969.5,779.5 C 969.389,780.117 969.056,780.617 968.5,781C 964.822,781.418 961.155,781.918 957.5,782.5C 955.97,782.64 954.97,783.307 954.5,784.5C 953.596,783.791 953.263,782.791 953.5,781.5C 958.863,781.051 964.196,780.384 969.5,779.5 Z"/></g>
<g><path style="opacity:1" fill="#f1f1f1" d="M 222.5,779.5 C 225.455,780.159 228.455,780.492 231.5,780.5C 235.917,780.607 240.251,781.274 244.5,782.5C 221.785,797.882 202.785,816.882 187.5,839.5C 187.372,837.91 186.705,836.577 185.5,835.5C 184.5,836.833 183.5,836.833 182.5,835.5C 181.866,833.433 180.866,831.6 179.5,830C 180.451,829.282 180.617,828.449 180,827.5C 179.163,829.007 177.996,829.507 176.5,829C 176.833,828.667 177.167,828.333 177.5,828C 174.507,826.841 172.84,824.675 172.5,821.5C 178.605,824.054 184.272,827.387 189.5,831.5C 200.526,814.149 211.526,796.816 222.5,779.5 Z"/></g>
<g><path style="opacity:1" fill="#8a8a8a" d="M 375.5,742.5 C 375.5,760.167 375.5,777.833 375.5,795.5C 390.5,795.5 405.5,795.5 420.5,795.5C 405.342,796.496 390.009,796.83 374.5,796.5C 374.17,778.326 374.503,760.326 375.5,742.5 Z"/></g>
<g><path style="opacity:1" fill="#a9a9a9" d="M 840.5,793.5 C 841.499,849.998 841.832,906.664 841.5,963.5C 853.345,963.172 865.012,963.505 876.5,964.5C 864.5,964.5 852.5,964.5 840.5,964.5C 840.5,907.5 840.5,850.5 840.5,793.5 Z"/></g>
<g><path style="opacity:1" fill="#373737" d="M 354.5,723.5 C 355.209,722.596 356.209,722.263 357.5,722.5C 357.5,752.833 357.5,783.167 357.5,813.5C 384.5,813.5 411.5,813.5 438.5,813.5C 411.338,814.498 384.005,814.831 356.5,814.5C 357.159,783.815 356.492,753.482 354.5,723.5 Z"/></g>
<g><path style="opacity:1" fill="#363636" d="M 840.5,964.5 C 852.5,964.5 864.5,964.5 876.5,964.5C 876.83,981.009 876.496,997.342 875.5,1013.5C 875.5,997.5 875.5,981.5 875.5,965.5C 863.655,965.828 851.988,965.495 840.5,964.5 Z"/></g>
<g><path style="opacity:1" fill="#2f2f2f" d="M 798.5,964.5 C 787.012,965.495 775.345,965.828 763.5,965.5C 763.5,980.5 763.5,995.5 763.5,1010.5C 751.833,1010.5 740.167,1010.5 728.5,1010.5C 739.654,1009.51 750.988,1009.17 762.5,1009.5C 762.5,994.5 762.5,979.5 762.5,964.5C 774.5,964.5 786.5,964.5 798.5,964.5 Z"/></g>
<g><path style="opacity:1" fill="#555555" d="M 780.5,982.5 C 806.5,982.5 832.5,982.5 858.5,982.5C 858.5,989.167 858.5,995.833 858.5,1002.5C 851.349,1005.43 847.016,1010.76 845.5,1018.5C 828.129,1018.91 810.796,1019.91 793.5,1021.5C 792.856,1012.88 788.689,1006.55 781,1002.5C 780.5,995.842 780.334,989.175 780.5,982.5 Z"/></g>
<g><path style="opacity:1" fill="#8f8f8f" d="M 448.5,996.5 C 448.94,998.844 449.94,1000.84 451.5,1002.5C 450.791,1003.4 449.791,1003.74 448.5,1003.5C 448.5,1001.17 448.5,998.833 448.5,996.5 Z"/></g>
<g><path style="opacity:1" fill="#5b5b5b" d="M 346.5,1008.5 C 336.984,1009.27 327.318,1009.94 317.5,1010.5C 319.148,1009.07 321.148,1008.24 323.5,1008C 331.178,1007.52 338.845,1007.69 346.5,1008.5 Z"/></g>
<g><path style="opacity:1" fill="#4c4c4c" d="M 870.5,1015.5 C 878.167,1016.17 885.833,1016.83 893.5,1017.5C 885.472,1017.83 877.472,1017.5 869.5,1016.5C 869.624,1015.89 869.957,1015.56 870.5,1015.5 Z"/></g>
<g><path style="opacity:1" fill="#a2a2a2" d="M 482.5,1019.5 C 473.779,1019.22 465.113,1019.56 456.5,1020.5C 456.611,1019.88 456.944,1019.38 457.5,1019C 466.01,1018.18 474.344,1018.34 482.5,1019.5 Z"/></g>
<g><path style="opacity:1" fill="#fcfcfc" d="M 482.5,1019.5 C 483.117,1019.61 483.617,1019.94 484,1020.5C 484.826,1041.74 484.66,1062.91 483.5,1084C 474.255,1084.82 465.089,1084.65 456,1083.5C 455.171,1062.33 455.337,1041.33 456.5,1020.5C 465.113,1019.56 473.779,1019.22 482.5,1019.5 Z"/></g>
<g><path style="opacity:1" fill="#fafafa" d="M 437.5,1072.5 C 430.847,1071.95 424.18,1071.61 417.5,1071.5C 398.02,1070.37 378.686,1069.37 359.5,1068.5C 349.709,1066.95 339.709,1066.29 329.5,1066.5C 324.258,1067.73 320.425,1066.06 318,1061.5C 318.393,1052.85 319.06,1044.18 320,1035.5C 319.811,1031.72 321.311,1028.89 324.5,1027C 362.193,1028.04 399.86,1029.88 437.5,1032.5C 437.5,1045.83 437.5,1059.17 437.5,1072.5 Z"/></g>
<g><path style="opacity:1" fill="#fbfbfb" d="M 732.5,1027.5 C 741.173,1027.33 749.84,1027.5 758.5,1028C 759,1028.5 759.5,1029 760,1029.5C 760.667,1049.5 760.667,1069.5 760,1089.5C 759.308,1090.03 758.808,1090.69 758.5,1091.5C 754.167,1091.83 749.833,1092.17 745.5,1092.5C 740.746,1092.47 736.246,1091.8 732,1090.5C 731.179,1069.43 731.346,1048.43 732.5,1027.5 Z"/></g>
<g><path style="opacity:1" fill="#fcfcfc" d="M 890.5,1035.5 C 892.83,1037.54 893.996,1040.21 894,1043.5C 895.448,1052.52 895.948,1061.52 895.5,1070.5C 894.272,1072.32 892.606,1073.32 890.5,1073.5C 873.978,1073.91 857.645,1074.91 841.5,1076.5C 835.925,1077.45 830.259,1077.79 824.5,1077.5C 813.966,1077.39 803.633,1078.06 793.5,1079.5C 788.695,1080.49 783.695,1080.82 778.5,1080.5C 778.5,1067.17 778.5,1053.83 778.5,1040.5C 814.23,1039.5 849.897,1037.5 885.5,1034.5C 887.135,1035.05 888.801,1035.38 890.5,1035.5 Z"/></g>
<g><path style="opacity:1" fill="#afafaf" d="M 890.5,1035.5 C 888.801,1035.38 887.135,1035.05 885.5,1034.5C 849.897,1037.5 814.23,1039.5 778.5,1040.5C 813.514,1038.2 848.68,1035.87 884,1033.5C 886.544,1033.34 888.71,1034 890.5,1035.5 Z"/></g>
<g><path style="opacity:1" fill="#7d7d7d" d="M 329.5,1066.5 C 339.709,1066.29 349.709,1066.95 359.5,1068.5C 349.306,1068.49 339.306,1067.82 329.5,1066.5 Z"/></g>
<g><path style="opacity:1" fill="#7a7a7a" d="M 417.5,1071.5 C 424.18,1071.61 430.847,1071.95 437.5,1072.5C 430.776,1073.8 424.109,1073.47 417.5,1071.5 Z"/></g>
<g><path style="opacity:1" fill="#747474" d="M 890.5,1073.5 C 874.383,1075.58 858.05,1076.58 841.5,1076.5C 857.645,1074.91 873.978,1073.91 890.5,1073.5 Z"/></g>
<g><path style="opacity:1" fill="#7a7a7a" d="M 824.5,1077.5 C 814.372,1079.01 804.038,1079.68 793.5,1079.5C 803.633,1078.06 813.966,1077.39 824.5,1077.5 Z"/></g>
<g><path style="opacity:1" fill="#fafafa" d="M 446.5,1130.5 C 434.494,1130.36 422.494,1130.02 410.5,1129.5C 393.032,1127.69 375.365,1126.69 357.5,1126.5C 356.5,1126.5 355.5,1126.5 354.5,1126.5C 345.717,1124.9 336.717,1124.24 327.5,1124.5C 325.04,1123.09 323.707,1120.92 323.5,1118C 324.63,1109.87 325.463,1101.7 326,1093.5C 327.3,1089.01 330.3,1087.01 335,1087.5C 370.139,1090.09 405.306,1092.25 440.5,1094C 443.82,1096.99 447.487,1099.49 451.5,1101.5C 452.189,1110.19 451.689,1118.86 450,1127.5C 448.961,1128.71 447.794,1129.71 446.5,1130.5 Z"/></g>
<g><path style="opacity:1" fill="#fbfbfb" d="M 885.5,1096.5 C 886.79,1097.06 887.623,1098.06 888,1099.5C 889.433,1109.13 890.1,1118.8 890,1128.5C 889.097,1129.7 887.931,1130.53 886.5,1131C 874.873,1132.46 863.207,1133.29 851.5,1133.5C 839.98,1133.58 828.646,1134.25 817.5,1135.5C 806.641,1135.51 795.974,1136.18 785.5,1137.5C 785.167,1137.5 784.833,1137.5 784.5,1137.5C 778.252,1138.02 772.252,1137.36 766.5,1135.5C 765.06,1127.4 763.727,1119.23 762.5,1111C 762.833,1110.17 763.167,1109.33 763.5,1108.5C 767.851,1106.66 771.851,1104.33 775.5,1101.5C 812.176,1100.01 848.843,1098.34 885.5,1096.5 Z"/></g>
<g><path style="opacity:1" fill="#adadad" d="M 885.5,1096.5 C 848.843,1098.34 812.176,1100.01 775.5,1101.5C 802.992,1099.39 830.659,1097.55 858.5,1096C 867.676,1095.18 876.676,1095.34 885.5,1096.5 Z"/></g>
<g><path style="opacity:1" fill="#989898" d="M 149.5,1103.5 C 149.5,1106.5 149.5,1109.5 149.5,1112.5C 201.833,1112.5 254.167,1112.5 306.5,1112.5C 254.003,1113.5 201.336,1113.83 148.5,1113.5C 148.187,1109.96 148.521,1106.62 149.5,1103.5 Z"/></g>
<g><path style="opacity:1" fill="#848484" d="M 327.5,1124.5 C 336.717,1124.24 345.717,1124.9 354.5,1126.5C 345.317,1126.28 336.317,1125.62 327.5,1124.5 Z"/></g>
<g><path style="opacity:1" fill="#878787" d="M 357.5,1126.5 C 375.365,1126.69 393.032,1127.69 410.5,1129.5C 392.634,1129.32 374.967,1128.32 357.5,1126.5 Z"/></g>
<g><path style="opacity:1" fill="#797979" d="M 130.5,1124.5 C 130.5,1126.5 130.5,1128.5 130.5,1130.5C 190.336,1130.17 250.002,1130.5 309.5,1131.5C 249.833,1131.5 190.167,1131.5 130.5,1131.5C 129.167,1129.17 129.167,1126.83 130.5,1124.5 Z"/></g>
<g><path style="opacity:1" fill="#929292" d="M 410.5,1129.5 C 422.494,1130.02 434.494,1130.36 446.5,1130.5C 434.469,1131.79 422.469,1131.46 410.5,1129.5 Z"/></g>
<g><path style="opacity:1" fill="#e0e0e0" d="M 130.5,1131.5 C 190.167,1131.5 249.833,1131.5 309.5,1131.5C 310.5,1132.83 311.5,1134.17 312.5,1135.5C 310.654,1135.78 309.32,1135.11 308.5,1133.5C 249.001,1132.83 189.668,1132.17 130.5,1131.5 Z"/></g>
<g><path style="opacity:1" fill="#bcbcbc" d="M 1065.5,1130.5 C 1013.11,1132.17 960.439,1133.17 907.5,1133.5C 907.414,1132.5 907.748,1131.67 908.5,1131C 960.832,1130.5 1013.17,1130.33 1065.5,1130.5 Z"/></g>
<g><path style="opacity:1" fill="#595959" d="M 733.5,1181.5 C 732.503,1165.01 732.17,1148.34 732.5,1131.5C 649.5,1131.5 566.5,1131.5 483.5,1131.5C 483.829,1145.68 483.496,1159.68 482.5,1173.5C 482.5,1159.17 482.5,1144.83 482.5,1130.5C 566.167,1130.5 649.833,1130.5 733.5,1130.5C 733.5,1147.5 733.5,1164.5 733.5,1181.5 Z"/></g>
<g><path style="opacity:1" fill="#777777" d="M 851.5,1133.5 C 840.369,1135.02 829.036,1135.69 817.5,1135.5C 828.646,1134.25 839.98,1133.58 851.5,1133.5 Z"/></g>
<g><path style="opacity:1" fill="#727272" d="M 817.5,1135.5 C 807.042,1137.09 796.376,1137.76 785.5,1137.5C 795.974,1136.18 806.641,1135.51 817.5,1135.5 Z"/></g>
<g><path style="opacity:1" fill="#939393" d="M 766.5,1135.5 C 772.252,1137.36 778.252,1138.02 784.5,1137.5C 779.35,1138.65 774.016,1138.82 768.5,1138C 767.619,1137.29 766.953,1136.46 766.5,1135.5 Z"/></g>
<g><path style="opacity:1" fill="#c4c4c4" d="M 464.5,1137.5 C 465.776,1138.39 465.776,1139.39 464.5,1140.5C 463.438,1139.58 463.438,1138.58 464.5,1137.5 Z"/></g>
<g><path style="opacity:1" fill="#fafafa" d="M 365.5,1147.5 C 365.918,1148.22 366.584,1148.72 367.5,1149C 378.825,1149.76 390.158,1150.26 401.5,1150.5C 418.566,1150.54 435.566,1151.54 452.5,1153.5C 452.987,1154.45 453.32,1155.45 453.5,1156.5C 452.158,1162.76 451.324,1169.1 451,1175.5C 450.743,1177.91 449.576,1179.57 447.5,1180.5C 439.5,1180.17 431.5,1179.83 423.5,1179.5C 421.5,1179.5 419.5,1179.5 417.5,1179.5C 406.685,1178.29 395.685,1177.62 384.5,1177.5C 373.007,1176.49 361.34,1175.82 349.5,1175.5C 343.794,1175.83 338.128,1175.5 332.5,1174.5C 331.673,1165.77 332.339,1157.1 334.5,1148.5C 336.707,1146.97 339.207,1146.3 342,1146.5C 349.814,1147.3 357.647,1147.63 365.5,1147.5 Z"/></g>
<g><path style="opacity:1" fill="#a0a0a0" d="M 365.5,1147.5 C 377.701,1147.87 389.701,1148.87 401.5,1150.5C 390.158,1150.26 378.825,1149.76 367.5,1149C 366.584,1148.72 365.918,1148.22 365.5,1147.5 Z"/></g>
<g><path style="opacity:1" fill="#b0b0b0" d="M 878.5,1154.5 C 865.841,1155.06 853.174,1155.4 840.5,1155.5C 853.14,1153.6 865.806,1153.27 878.5,1154.5 Z"/></g>
<g><path style="opacity:1" fill="#fbfbfb" d="M 878.5,1154.5 C 879.458,1154.95 880.292,1155.62 881,1156.5C 881.474,1163.72 882.307,1170.89 883.5,1178C 883.265,1178.87 882.931,1179.71 882.5,1180.5C 879.914,1181.48 877.247,1181.81 874.5,1181.5C 855.312,1181.84 836.312,1182.84 817.5,1184.5C 811.021,1185.49 804.354,1185.82 797.5,1185.5C 787.494,1185.68 777.494,1186.01 767.5,1186.5C 765.933,1185.32 765.099,1183.65 765,1181.5C 764.492,1175.45 763.659,1169.45 762.5,1163.5C 762.34,1161.65 763.007,1160.31 764.5,1159.5C 789.715,1159.32 814.715,1157.99 839.5,1155.5C 839.833,1155.5 840.167,1155.5 840.5,1155.5C 853.174,1155.4 865.841,1155.06 878.5,1154.5 Z"/></g>
<g><path style="opacity:1" fill="#b3b3b3" d="M 839.5,1155.5 C 814.715,1157.99 789.715,1159.32 764.5,1159.5C 789.302,1157.33 814.302,1155.99 839.5,1155.5 Z"/></g>
<g><path style="opacity:1" fill="#838383" d="M 349.5,1175.5 C 361.34,1175.82 373.007,1176.49 384.5,1177.5C 372.619,1177.89 360.952,1177.23 349.5,1175.5 Z"/></g>
<g><path style="opacity:1" fill="#7a7a7a" d="M 384.5,1177.5 C 395.685,1177.62 406.685,1178.29 417.5,1179.5C 406.298,1179.67 395.298,1179 384.5,1177.5 Z"/></g>
<g><path style="opacity:1" fill="#5d5d5d" d="M 423.5,1179.5 C 431.5,1179.83 439.5,1180.17 447.5,1180.5C 439.46,1181.69 431.46,1181.36 423.5,1179.5 Z"/></g>
<g><path style="opacity:1" fill="#888888" d="M 874.5,1181.5 C 855.692,1183.23 836.692,1184.23 817.5,1184.5C 836.312,1182.84 855.312,1181.84 874.5,1181.5 Z"/></g>
<g><path style="opacity:1" fill="#606060" d="M 797.5,1185.5 C 791.566,1186.96 785.399,1187.63 779,1187.5C 774.985,1187.5 771.151,1187.17 767.5,1186.5C 777.494,1186.01 787.494,1185.68 797.5,1185.5 Z"/></g>
<g><path style="opacity:1" fill="#f7f7f7" d="M 395.5,1196.5 C 402.353,1197.28 409.353,1197.94 416.5,1198.5C 416.5,1200.5 416.5,1202.5 416.5,1204.5C 412.454,1217.04 403.787,1222.2 390.5,1220C 379.995,1215.16 375.662,1206.99 377.5,1195.5C 383.591,1195.21 389.591,1195.54 395.5,1196.5 Z"/></g>
<g><path style="opacity:1" fill="#bababa" d="M 395.5,1196.5 C 402.833,1196.5 410.167,1196.5 417.5,1196.5C 417.806,1199.39 417.473,1202.05 416.5,1204.5C 416.5,1202.5 416.5,1200.5 416.5,1198.5C 409.353,1197.94 402.353,1197.28 395.5,1196.5 Z"/></g>
<g><path style="opacity:1" fill="#525252" d="M 853.5,1200.5 C 855.167,1200.5 856.833,1200.5 858.5,1200.5C 858.83,1207.53 858.497,1214.53 857.5,1221.5C 847.597,1233.11 834.93,1238.78 819.5,1238.5C 803.622,1238.81 790.789,1232.81 781,1220.5C 780.501,1215.18 780.334,1209.84 780.5,1204.5C 782.167,1204.5 783.833,1204.5 785.5,1204.5C 784.835,1220.34 792.168,1226.51 807.5,1223C 812.336,1221.18 815.169,1217.68 816,1212.5C 816.498,1209.18 816.665,1205.85 816.5,1202.5C 818.5,1202.5 820.5,1202.5 822.5,1202.5C 821.885,1222.5 830.551,1228.5 848.5,1220.5C 850.192,1218.64 851.692,1216.64 853,1214.5C 853.499,1209.85 853.666,1205.18 853.5,1200.5 Z"/></g>
<g><path style="opacity:1" fill="#3b3b3b" d="M 881.5,1198.5 C 880.081,1199.45 878.415,1199.78 876.5,1199.5C 876.827,1208.68 876.493,1217.68 875.5,1226.5C 875.5,1217.17 875.5,1207.83 875.5,1198.5C 877.5,1198.5 879.5,1198.5 881.5,1198.5 Z"/></g>
<g><path style="opacity:1" fill="#595959" d="M 335.5,1196.5 C 335.5,1201.17 335.5,1205.83 335.5,1210.5C 338.247,1210.19 340.914,1210.52 343.5,1211.5C 342.423,1212.71 341.09,1213.37 339.5,1213.5C 339.611,1212.88 339.944,1212.38 340.5,1212C 338.527,1211.5 336.527,1211.34 334.5,1211.5C 334.179,1206.31 334.513,1201.31 335.5,1196.5 Z"/></g>
<g><path style="opacity:1" fill="#505050" d="M 353.5,1193.5 C 355.5,1193.5 357.5,1193.5 359.5,1193.5C 358.071,1215.21 367.405,1230.05 387.5,1238C 407.937,1241.2 422.77,1233.7 432,1215.5C 434.128,1210.02 435.295,1204.36 435.5,1198.5C 437.833,1198.5 440.167,1198.5 442.5,1198.5C 442.825,1203.6 442.325,1208.6 441,1213.5C 426.801,1240.02 405.301,1248.52 376.5,1239C 365.361,1232.2 357.527,1222.7 353,1210.5C 352.215,1204.75 352.382,1199.08 353.5,1193.5 Z"/></g>
<g><path style="opacity:1" fill="#aeaeae" d="M 804.5,1255.5 C 812.805,1256.33 821.138,1256.67 829.5,1256.5C 826.183,1257.17 822.683,1257.5 819,1257.5C 813.898,1257.71 809.065,1257.04 804.5,1255.5 Z"/></g>
</svg>
